<svg width="193" height="264" viewBox="0 0 193 264" fill="none" xmlns="http://www.w3.org/2000/svg">
<path d="M54.65 217.36H43.1C42.27 217.36 41.6 218.03 41.6 218.86C41.6 219.69 42.27 220.36 43.1 220.36H54.65C55.48 220.36 56.15 219.69 56.15 218.86C56.15 218.03 55.48 217.36 54.65 217.36Z" fill="#008082"/>
<path d="M54.65 209.29H43.1C42.27 209.29 41.6 209.96 41.6 210.79C41.6 211.62 42.27 212.29 43.1 212.29H54.65C55.48 212.29 56.15 211.62 56.15 210.79C56.15 209.96 55.48 209.29 54.65 209.29Z" fill="#008082"/>
<path d="M165.56 223.64L162.74 223.76L162.45 213.38C162.39 211.42 160.76 209.87 158.79 209.93L145.6 210.31L144.6 175.39L151.04 175.11C151.87 175.08 152.51 174.38 152.48 173.55C152.44 172.73 151.74 172.08 150.92 172.12L144.52 172.39L141.22 56.6098C141.2 55.7898 140.9 55.0498 140.43 54.4698C139.95 53.8898 139.29 53.4598 138.54 53.2698L137.33 10.8698L139.03 10.8198C140.99 10.7698 142.53 9.12984 142.48 7.16984L142.39 4.02982C142.33 2.06982 140.7 0.51981 138.74 0.57981L124.68 0.979834C122.71 1.02983 121.17 2.66983 121.22 4.62983L121.31 7.76981C121.37 9.72981 123.01 11.2798 124.97 11.2198L127.35 11.1598L128.56 53.5698C127.11 54.0298 126.03 55.3898 126.09 57.0298L127.82 118.32C127.06 117.98 126.22 117.8 125.34 117.84H125.32C122.26 117.95 119.8 120.49 119.8 123.54V123.65L120.99 170.07L121.07 173.67L118.19 173.76H118.17C116.23 173.84 114.69 175.45 114.73 177.42L115.15 192.41L104.92 200.43V200.34C104.92 198.38 103.33 196.79 101.37 196.79H88.07C86.11 196.79 84.52 198.38 84.52 200.34V216.18C82.88 215.19 81.0199 214.55 79.0099 214.33V200.34C79.0099 198.38 77.42 196.79 75.46 196.79H70.63C71.49 195.6 72.0099 194.14 72.0099 192.56C72.0099 188.57 68.77 185.33 64.78 185.33C63 185.33 61.38 185.98 60.12 187.04C60.06 187.08 60 187.12 59.94 187.16L48.85 196.54C48.76 196.62 48.69 196.7 48.62 196.79H33.29C31.32 196.79 29.73 198.38 29.73 200.34V255.88C29.73 255.88 29.74 255.96 29.75 256H26.5C25.67 256 25 256.67 25 257.5C25 258.33 25.67 259 26.5 259H35.95C36.77 259 37.45 258.33 37.45 257.5C37.45 256.67 36.77 256 35.95 256H32.72C32.72 256 32.73 255.92 32.73 255.88V251.58H114.73V255.88C114.73 255.88 114.74 255.96 114.74 256H111.49C110.66 256 109.99 256.67 109.99 257.5C109.99 258.33 110.66 259 111.49 259H120.94C121.77 259 122.44 258.33 122.44 257.5C122.44 256.67 121.77 256 120.94 256H117.72C117.72 256 117.73 255.92 117.73 255.88V220.6C117.73 219.77 117.06 219.1 116.23 219.1C115.4 219.1 114.73 219.77 114.73 220.6V227.22H104.86C104.89 227.03 104.92 226.84 104.92 226.64V217.73L126.14 201.3L130.16 201.19L130.84 225.1L128.88 225.19C128.05 225.22 127.41 225.92 127.44 226.75C127.48 227.58 128.17 228.22 129 228.18L130.93 228.1L131.48 247.46C131.49 248.03 131.65 248.55 131.9 249.03C131.94 249.17 132.01 249.32 132.11 249.45L138.1 257.52H138.11C139.32 259.21 141.76 259.52 143.33 258.03H143.34L150.76 250.92C150.89 250.8 150.97 250.65 151.05 250.51L159.94 250.25C161.91 250.2 163.45 248.56 163.39 246.6L162.83 226.76L165.69 226.64C166.52 226.6 167.16 225.9 167.12 225.08C167.09 224.25 166.39 223.61 165.56 223.64ZM87.52 200.34C87.52 200.04 87.77 199.79 88.07 199.79H101.37C101.67 199.79 101.92 200.04 101.92 200.34V226.64C101.92 226.94 101.67 227.19 101.37 227.19H88.07C87.77 227.19 87.52 226.94 87.52 226.64V200.34ZM77.55 217.21C77.65 217.21 77.67 217.21 77.68 217.21L77.8 217.23H78.0099L78.16 217.25C80.61 217.39 82.8 218.35 84.52 219.89V226.63C84.52 226.82 84.55 227 84.58 227.18H66.98C67.14 224.4 68.36 221.91 70.25 220.11C72.15 218.31 74.6999 217.2 77.5099 217.2H77.55V217.21ZM64.78 188.33C67.11 188.33 69.0099 190.23 69.0099 192.56C69.0099 194.89 67.11 196.79 64.78 196.79C62.45 196.79 60.55 194.9 60.55 192.56C60.55 190.22 62.44 188.33 64.78 188.33ZM57.58 193.09C57.68 194.47 58.16 195.73 58.92 196.79H53.2L57.58 193.09ZM32.73 200.34C32.73 200.04 32.98 199.79 33.29 199.79H75.46C75.77 199.79 76.0099 200.04 76.0099 200.34V214.3C73.3199 214.6 70.86 215.68 68.88 217.32C66.01 219.69 64.15 223.23 63.98 227.19H32.73V200.34ZM114.7 248.58H32.73V243.87H114.7V248.58ZM114.7 230.22V240.87H32.73V230.22H114.7ZM158.88 212.93C159.19 212.92 159.44 213.16 159.45 213.47L159.75 223.89L146 224.47L145.68 213.31L158.88 212.93ZM124.88 8.22983C124.58 8.22983 124.32 7.98983 124.31 7.68983L124.22 4.54981C124.21 4.23981 124.46 3.98983 124.76 3.97983L138.82 3.57981C139.13 3.56981 139.38 3.80982 139.39 4.11982L139.48 7.25983C139.49 7.55983 139.25 7.81981 138.94 7.82981L124.88 8.22983ZM135.54 53.1998L131.55 53.3198L130.35 11.0898L134.34 10.9798L135.54 53.1998ZM125.43 120.84H125.45C126.5 120.79 127.46 121.41 127.89 122.34C127.91 122.38 127.92 122.41 127.94 122.45L128.65 147.61V147.8L129.25 169.03L129.36 173.45L124.07 173.59L123.99 170L122.8 123.58C122.77 122.14 123.95 120.88 125.43 120.84ZM104.92 213.94V204.24L115.26 196.14L115.31 198.04V198.06C115.39 200 117 201.55 118.97 201.5H118.98L121.05 201.45L104.92 213.94ZM118.9 198.51C118.59 198.51 118.32 198.27 118.31 197.94L118.18 193.38C118.22 193.15 118.22 192.92 118.16 192.7L117.73 177.35C117.72 177.04 117.97 176.77 118.3 176.76L121.14 176.67L122.65 176.64L129.2 176.47L129.82 198.2L118.9 198.51ZM132.25 168.94L131.11 122.88V122.75C131.07 122.44 131 122.15 130.92 121.88L129.09 56.9398H129.08V56.9198C129.07 56.6598 129.29 56.3898 129.62 56.3798H130.1C130.21 56.3898 130.32 56.3998 130.43 56.3898L136.83 56.2098C136.97 56.2098 137.1 56.1898 137.22 56.1598L137.65 56.1398C137.96 56.1398 138.21 56.3798 138.22 56.6798L141.52 172.51L132.36 172.9L132.25 168.94ZM132.45 175.9L141.6 175.51L142.65 212.03C142.64 212.08 142.63 212.13 142.63 212.18L142.99 224.59L133.84 224.98L132.45 175.9ZM135.01 247.93C134.75 247.94 134.48 247.72 134.47 247.39L133.92 227.98L143.07 227.59L143.64 247.68L135.03 247.93H135.01ZM141.27 255.85C141.06 256.05 140.72 256.04 140.53 255.76H140.52L140.51 255.73L136.9 250.88L143.73 250.68V250.71L146.73 250.63L141.27 255.85ZM159.86 247.25L146.66 247.63L146.09 227.46L159.83 226.88L160.39 246.68C160.4 246.99 160.16 247.24 159.86 247.25Z" fill="#008082"/>
</svg>
