<svg width="308" height="264" viewBox="0 0 308 264" fill="none" xmlns="http://www.w3.org/2000/svg">
<path d="M281.945 231.51L278.655 221.8C278.595 221.63 278.515 221.49 278.415 221.36L281.985 213.16C282.765 211.35 281.945 209.26 280.145 208.48L261.955 200.57L263.055 197.94C263.375 197.18 263.015 196.3 262.255 195.98C261.485 195.66 260.605 196.02 260.285 196.78L259.205 199.37L249.665 195.23C247.865 194.45 245.775 195.27 244.995 197.07L239.725 209.19L166.615 177.41L167.615 175.12C167.945 174.36 167.595 173.48 166.835 173.15C166.075 172.82 165.195 173.17 164.865 173.93L163.865 176.21L98.7349 147.9C98.2749 147.69 97.7949 147.59 97.3349 147.59C96.2649 147.59 95.2449 148.09 94.5649 148.92L39.4249 124.94L40.3049 122.93C41.0849 121.13 40.2649 119.04 38.4649 118.26L35.5749 117C33.7749 116.22 31.6849 117.04 30.9049 118.84L25.2949 131.74C24.5149 133.54 25.3349 135.64 27.1349 136.42L30.0149 137.67C31.8149 138.46 33.9149 137.63 34.6949 135.83L35.4449 134.1L90.6049 158.08C90.4149 159.61 91.2149 161.15 92.7049 161.78L119.905 173.62C119.215 174.17 118.645 174.87 118.265 175.74C117.045 178.61 118.355 181.92 121.185 183.17H121.195L135.705 189.48H130.565C124.205 189.48 119.035 194.65 119.035 201.01V207.01C112.245 207.55 106.885 213.09 106.595 219.93C101.725 219.93 97.2049 219.93 93.2549 219.95V203.36C93.2549 201.39 91.6649 199.8 89.6949 199.8H79.5249C77.5649 199.8 75.9749 201.39 75.9749 203.36V255.89C75.9749 255.89 75.9749 255.96 75.9849 255.99H72.0849C71.2549 255.99 70.5849 256.66 70.5849 257.49C70.5849 258.32 71.2549 258.99 72.0849 258.99H82.8349C83.6649 258.99 84.3349 258.32 84.3349 257.49C84.3349 256.66 83.6649 255.99 82.8349 255.99H78.9649C78.9649 255.99 78.9749 255.93 78.9749 255.89V239.27H85.4949C85.0049 240.74 84.7149 242.3 84.7149 243.93C84.7149 252.23 91.5048 258.99 99.8048 258.99H164.615C168.775 258.99 172.535 257.3 175.245 254.57H175.255C176.615 253.22 177.725 251.6 178.485 249.8C179.255 248 179.675 246.02 179.675 243.94C179.675 242.31 179.395 240.75 178.895 239.28H187.165V255.9C187.165 255.9 187.175 255.97 187.175 256H183.275C182.445 256 181.775 256.67 181.775 257.5C181.775 258.33 182.445 259 183.275 259H194.025C194.855 259 195.525 258.33 195.525 257.5C195.525 256.67 194.855 256 194.025 256H190.155C190.155 256 190.165 255.94 190.165 255.9V210.98C190.165 210.15 189.495 209.48 188.665 209.48C187.835 209.48 187.165 210.15 187.165 210.98V219.89C186.335 219.9 185.205 219.9 183.775 219.9C180.675 219.9 176.235 219.9 170.925 219.91H165.805V202.58L172.115 205.32H172.145C172.825 205.6 173.575 205.77 174.335 205.77C176.495 205.77 178.595 204.5 179.525 202.39C179.895 201.53 180.025 200.63 179.965 199.75L246.845 228.84L246.075 230.66C245.755 231.43 246.115 232.31 246.885 232.63C247.645 232.95 248.525 232.59 248.845 231.82L249.595 230.03L267.375 237.77H267.385C267.905 237.99 268.445 238.07 268.985 238.04C269.135 238.06 269.285 238.06 269.435 238.03L279.275 236.05H279.265C281.375 235.67 282.605 233.51 281.945 231.52V231.51ZM260.795 203.34L278.945 211.23C279.225 211.35 279.355 211.68 279.235 211.96L273.965 224.08L255.465 216.04L260.795 203.34ZM247.745 198.27C247.865 197.98 248.195 197.86 248.475 197.98L258.045 202.14L252.715 214.84L242.475 210.39L247.745 198.27ZM31.9449 134.63C31.8249 134.92 31.4949 135.04 31.2149 134.92L28.3349 133.67C28.0549 133.55 27.9249 133.22 28.0449 132.94L33.6549 120.04C33.7749 119.76 34.1049 119.63 34.3849 119.75L37.2649 121.01C37.5449 121.13 37.6749 121.46 37.5549 121.74L31.9449 134.63ZM91.9749 154.54L91.6549 155.27L36.6549 131.35L38.2349 127.7L93.2349 151.61L91.9749 154.54ZM93.8949 159.03H93.8749C93.6249 158.92 93.4849 158.59 93.6049 158.31L94.7149 155.72L96.4649 151.7C96.4649 151.7 96.4849 151.65 96.4949 151.63L96.7849 150.94C96.9249 150.64 97.2549 150.52 97.5149 150.64H97.5249L162.655 178.96L159.005 187.36L93.8849 159.03H93.8949ZM122.395 180.43C121.075 179.84 120.455 178.28 121.025 176.93C121.445 175.96 122.405 175.37 123.435 175.37C123.725 175.37 123.975 175.41 124.175 175.47L157.815 190.11L155.825 194.68C155.785 194.76 155.765 194.85 155.745 194.93L122.395 180.43ZM122.035 201.01C122.035 196.31 125.865 192.48 130.565 192.48H142.605L162.805 201.27V219.88H133.655C133.365 213.33 128.435 207.99 122.035 207.1V201.01ZM120.125 209.95H120.485L120.625 209.99H120.765C126.115 210.31 130.365 214.6 130.655 219.93H109.595C109.895 214.38 114.485 209.95 120.125 209.95ZM78.9749 203.36C78.9749 203.05 79.2149 202.8 79.5249 202.8H89.6949C90.0049 202.8 90.2549 203.05 90.2549 203.36V219.95H86.2749C83.5349 219.95 81.3249 219.96 79.8149 219.96H78.9749V203.36ZM173.135 252.44H173.125C170.955 254.64 167.945 255.99 164.615 255.99H99.8048C93.1548 255.99 87.7149 250.57 87.7149 243.93C87.7149 241.96 88.1849 240.13 89.0549 238.49L89.0849 238.44C89.6349 237.33 90.3849 236.3 91.2649 235.42C92.0949 234.6 93.0249 233.89 94.0549 233.33C95.7649 232.4 97.7248 231.87 99.8048 231.87H164.615C169.275 231.87 173.335 234.56 175.315 238.45H175.325V238.47C176.205 240.12 176.675 241.95 176.675 243.93C176.675 247.26 175.325 250.27 173.135 252.44ZM170.925 222.9C176.245 222.89 180.675 222.89 183.785 222.89C185.205 222.89 186.335 222.89 187.165 222.88V236.27H177.535C174.935 231.86 170.115 228.87 164.615 228.87H99.8048C97.1948 228.87 94.7549 229.54 92.6249 230.7C91.3449 231.4 90.1749 232.28 89.1449 233.3C88.2649 234.18 87.4949 235.18 86.8549 236.27H78.9749V222.96H93.2549C97.4949 222.94 102.395 222.94 107.685 222.93H133.635C140.415 222.93 147.175 222.92 153.525 222.91C159.875 222.91 165.805 222.91 170.925 222.9ZM176.775 201.18C176.345 202.16 175.355 202.77 174.335 202.77C174.025 202.77 173.665 202.7 173.285 202.55L164.895 198.91L158.445 196.1C158.495 196.03 158.535 195.96 158.575 195.88L160.565 191.31L175.775 197.92H175.795C176.855 198.61 177.295 199.99 176.775 201.18ZM248.005 226.07L177.185 195.28L177.085 195.22L177.045 195.2H177.005L161.765 188.56L165.415 180.16L251.555 217.61L248.005 226.07ZM269.305 234.73V234.75C269.195 235 268.865 235.14 268.585 235.02H268.575L250.755 227.27L254.305 218.81L272.745 226.82L269.305 234.73ZM278.735 233.1H278.675L272.765 234.3L275.495 228.02H275.515L276.115 226.65L276.685 225.34L279.095 232.47C279.195 232.77 279.005 233.05 278.735 233.1Z" fill="#008082"/>
<path d="M171.535 243.94C171.535 239.95 168.295 236.71 164.305 236.71H100.095C96.1049 236.71 92.8649 239.95 92.8649 243.94C92.8649 243.94 92.8649 243.94 92.8649 243.95C92.8649 243.96 92.8649 243.95 92.8649 243.96C92.8649 247.95 96.1049 251.19 100.095 251.19C100.255 251.19 100.415 251.18 100.575 251.17H163.815C163.975 251.18 164.135 251.19 164.295 251.19C168.285 251.19 171.525 247.95 171.525 243.96C171.525 243.96 171.525 243.95 171.525 243.94H171.535ZM100.335 248.17H100.095C97.7649 248.17 95.8748 246.28 95.8648 243.95C95.8648 241.62 97.7649 239.73 100.095 239.73C102.425 239.73 104.325 241.62 104.325 243.96C104.325 246.3 102.555 248.04 100.335 248.16V248.17ZM105.965 248.17C106.815 246.98 107.325 245.54 107.325 243.97C107.325 242.4 106.805 240.91 105.935 239.72H158.475C157.605 240.91 157.085 242.38 157.085 243.97C157.085 245.56 157.595 246.99 158.445 248.17H105.965ZM164.305 248.17H164.065C161.845 248.04 160.075 246.22 160.075 243.97C160.075 241.72 161.965 239.74 164.305 239.74C166.645 239.74 168.525 241.62 168.535 243.95C168.535 246.28 166.645 248.17 164.305 248.17Z" fill="#008082"/>
<path d="M139.655 214.38H151.205C152.035 214.38 152.705 213.71 152.705 212.88C152.705 212.05 152.035 211.38 151.205 211.38H139.655C138.825 211.38 138.155 212.05 138.155 212.88C138.155 213.71 138.825 214.38 139.655 214.38Z" fill="#008082"/>
<path d="M139.655 206.33H151.205C152.035 206.33 152.705 205.66 152.705 204.83C152.705 204 152.035 203.33 151.205 203.33H139.655C138.825 203.33 138.155 204 138.155 204.83C138.155 205.66 138.825 206.33 139.655 206.33Z" fill="#008082"/>
</svg>
