<svg width="194" height="264" viewBox="0 0 194 264" fill="none" xmlns="http://www.w3.org/2000/svg">
<path d="M167.46 223.93L164.67 223.97V213.58C164.66 211.61 163.06 210.03 161.1 210.03H155.98L155.89 162.5V162.42C155.85 161.72 155.62 161.11 155.43 160.67H155.42C155 159.68 154.29 158.84 153.4 158.24C152.51 157.64 151.44 157.28 150.28 157.28H150.26C149.32 157.29 148.43 157.54 147.65 157.96V155.95L147.51 24.6596H148.32C149.15 24.6596 149.82 23.9796 149.82 23.1596C149.82 22.3396 149.15 21.6596 148.32 21.6596H147.51V15.5196C147.5 15.3396 147.47 15.1796 147.44 15.0096H150.77C152.73 15.0096 154.32 13.4096 154.32 11.4496V3.85959C154.31 1.89959 152.72 0.30957 150.75 0.30957L126.13 0.339569C124.16 0.339569 122.57 1.92957 122.58 3.89957V11.4796C122.59 13.4496 124.18 15.0396 126.14 15.0296H129.15C129.12 15.1996 129.08 15.3596 129.08 15.5396V21.6596H128.34C127.51 21.6596 126.84 22.3296 126.84 23.1596C126.84 23.9896 127.51 24.6596 128.34 24.6596H129.09L129.18 147.82C120.37 148.63 113.36 155.53 112.36 164.2H112.35V164.24C112.35 164.24 112.35 164.26 112.34 164.27H112.35C112.22 165.11 112.17 165.98 112.19 166.86C112.25 169.49 112.86 171.97 113.89 174.21C113.86 174.22 113.84 174.24 113.81 174.26L104.24 182.28V177.19C104.24 175.01 102.48 173.25 100.3 173.25H96.78C97.64 172.06 98.15 170.61 98.15 169.03C98.15 165.04 94.9201 161.8 90.9301 161.8C89.1501 161.8 87.52 162.44 86.26 163.51C86.2 163.55 86.1501 163.58 86.0901 163.63L74.98 173C74.89 173.08 74.81 173.16 74.74 173.25H54.6801C52.4901 173.25 50.73 175.01 50.73 177.19V194.93H46.7201C38.4401 194.93 31.6201 201.27 30.8501 209.36H27.05V209.73C25.84 210.29 25 211.51 25 212.94V218.52C25 220.54 26.65 222.15 28.62 222.15H38.29V229.05C34.91 229.52 31.8801 231.05 29.5601 233.3C28.4401 234.39 27.48 235.67 26.75 237.06C26.75 237.06 26.7467 237.066 26.74 237.08C25.61 239.16 25 241.47 25 243.94C25 252.28 31.9901 259 40.4401 259H107.02C111.26 259 115.12 257.32 117.9 254.59C117.9 254.59 117.91 254.59 117.91 254.58C119.13 253.4 120.15 252 120.92 250.46C121.68 248.92 122.18 247.22 122.36 245.44H122.47V243.94C122.47 241.47 121.85 239.16 120.72 237.09C120.72 237.09 120.71 237.07 120.71 237.06C119.58 234.9 117.92 233.04 115.91 231.65C113.9 230.26 111.52 229.32 108.96 229.01V222.15H118.81C120.84 222.15 122.44 220.5 122.44 218.52V212.99C122.44 210.96 120.79 209.36 118.81 209.36H104.24V199.46C104.46 199.42 104.68 199.32 104.87 199.17L123.99 183.82C125.64 184.48 127.41 184.9 129.25 185.06L129.32 225.64C129.29 225.75 129.27 225.87 129.28 225.98C129.28 226.09 129.29 226.2 129.32 226.3L129.35 246.89V246.92C129.35 248.04 129.94 248.93 130.69 249.5C130.69 249.5 130.71 249.5 130.72 249.52L139.28 257.27C140.5 258.81 142.8 259.06 144.3 257.69L151.92 250.78C152.05 250.66 152.14 250.52 152.22 250.37H161.14C163.11 250.36 164.69 248.77 164.69 246.81L164.67 226.97L167.51 226.93C168.34 226.92 169 226.24 168.99 225.41C168.97 224.58 168.29 223.92 167.46 223.93ZM90.9301 164.8C93.2601 164.8 95.15 166.69 95.15 169.03C95.15 171.37 93.2701 173.25 90.9401 173.25H90.92C88.59 173.25 86.7001 171.36 86.7001 169.03C86.7001 166.7 88.5901 164.8 90.9301 164.8ZM83.7201 169.55C83.8201 170.93 84.3101 172.2 85.0701 173.25H79.3301L83.7201 169.55ZM53.73 177.19C53.73 176.67 54.1501 176.25 54.6801 176.25H100.3C100.83 176.25 101.24 176.67 101.24 177.19V209.36H53.73V177.19ZM46.7201 197.93H50.73V209.36H33.87C34.63 202.93 40.0901 197.93 46.7201 197.93ZM118.06 238.47V238.49L118.08 238.5C118.92 240.04 119.38 241.74 119.44 243.56V243.94C119.44 247.26 118.05 250.26 115.81 252.44C114.69 253.54 113.35 254.43 111.86 255.04C110.38 255.66 108.74 256 107.02 256H40.4401C33.5701 256 28 250.54 28 243.94C28 241.98 28.49 240.15 29.38 238.5L29.39 238.47C29.97 237.36 30.74 236.33 31.64 235.45C33.91 233.25 37.0201 231.89 40.4601 231.89H107.04C111.86 231.89 116.04 234.59 118.05 238.47H118.06ZM41.29 228.89V222.15H105.96V228.89H41.29ZM118.81 212.36C119.16 212.36 119.44 212.64 119.44 212.99V218.52C119.44 218.86 119.16 219.15 118.81 219.15H28.62C28.28 219.15 28 218.86 28 218.52V212.94C28 212.63 28.24 212.38 28.55 212.38H30.05V212.36H30.77V212.38H104.24V212.36H118.81ZM155.99 213.04L161.1 213.03C161.41 213.03 161.66 213.27 161.66 213.58V224.02L147.78 224.22L147.76 213.04H155.99ZM150.29 160.28C151.35 160.28 152.27 160.94 152.67 161.87H152.68C152.82 162.2 152.88 162.41 152.89 162.57L152.98 210.04H147.74V209.31L147.65 162.96C147.65 161.51 148.83 160.3 150.29 160.28ZM104.24 195.83V186.08C104.39 186.02 104.54 185.95 104.67 185.84L115.38 176.86C116.86 179.07 118.8 180.93 121.05 182.33L104.24 195.83ZM115.19 166.79C115.17 166.05 115.21 165.34 115.32 164.67V164.6C116.14 157.4 121.9 151.62 129.18 150.83V151.1L129.25 182.06C121.51 181.26 115.38 174.79 115.19 166.79ZM126.14 12.0296C125.83 12.0296 125.58 11.7896 125.58 11.4796V3.88959C125.58 3.58959 125.82 3.33957 126.13 3.33957L150.76 3.30957C151.06 3.30957 151.31 3.55957 151.31 3.86957V11.4496C151.32 11.7596 151.07 12.0096 150.76 12.0096H143.42C143.42 12.0096 143.4 12.0096 143.39 12.0096H133.19C133.14 12.0096 133.08 12.0196 133.03 12.0296H126.14ZM132.27 15.2896C132.44 15.1596 132.74 15.0496 133.11 15.0296H143.41C143.82 15.0196 144.14 15.1496 144.33 15.2896C144.42 15.3596 144.46 15.4196 144.48 15.4596C144.5 15.4896 144.5 15.5096 144.5 15.5196V21.6596H132.09V15.5396C132.09 15.5396 132.08 15.4396 132.27 15.2896ZM132.25 185.16H132.28V183.65L132.23 149.23V147.73H132.18L132.09 24.6596H144.51L144.65 155.95V180.03L144.72 224.26L132.31 224.44L132.25 185.16ZM132.57 247.15L132.37 246.97L132.36 246.96C132.36 246.96 132.357 246.95 132.35 246.93V246.89L132.32 227.44L144.73 227.26L144.76 247.4H133.46C133.06 247.4 132.76 247.28 132.57 247.15ZM142.29 255.47H142.28C142.08 255.66 141.74 255.63 141.58 255.39L141.48 255.22L141.33 255.09L136.15 250.4H146.29V250.38H147.9L142.29 255.47ZM161.14 247.36L147.8 247.38L147.78 227.22L161.67 227.02L161.69 246.81C161.69 247.12 161.45 247.36 161.14 247.36Z" fill="#008081"/>
<path d="M83.26 198.54H71.7101C70.8801 198.54 70.2101 199.21 70.2101 200.04C70.2101 200.87 70.8801 201.54 71.7101 201.54H83.26C84.09 201.54 84.76 200.87 84.76 200.04C84.76 199.21 84.09 198.54 83.26 198.54Z" fill="#008081"/>
<path d="M83.26 190.49H71.7101C70.8801 190.49 70.2101 191.16 70.2101 191.99C70.2101 192.82 70.8801 193.49 71.7101 193.49H83.26C84.09 193.49 84.76 192.82 84.76 191.99C84.76 191.16 84.09 190.49 83.26 190.49Z" fill="#008081"/>
<path d="M106.54 236.72C106.38 236.72 106.23 236.73 106.08 236.74H41.37C41.22 236.74 41.06 236.72 40.91 236.72H40.6001C36.6101 236.72 33.37 239.96 33.37 243.95C33.37 245.95 34.19 247.77 35.5 249.08C36.81 250.39 38.62 251.21 40.62 251.21H106.89C110.88 251.21 114.12 247.97 114.12 243.98C114.12 241.98 113.31 240.17 111.99 238.86C110.68 237.54 108.87 236.73 106.87 236.73H106.56L106.54 236.72ZM40.9 248.18H40.5901C39.4301 248.18 38.38 247.71 37.62 246.95C36.86 246.19 36.39 245.13 36.39 243.97C36.39 241.64 38.28 239.74 40.62 239.74H41.14C43.36 239.86 45.13 241.69 45.13 243.94C45.13 246.19 43.24 248.17 40.9 248.17V248.18ZM46.74 248.2C47.61 247.01 48.13 245.54 48.13 243.95C48.13 242.36 47.62 240.93 46.77 239.75H100.67C99.82 240.94 99.3101 242.38 99.3101 243.95C99.3101 245.52 99.8301 247.01 100.7 248.2H46.73H46.74ZM109.86 240.97C110.62 241.73 111.09 242.78 111.09 243.95C111.09 246.28 109.2 248.18 106.86 248.18H106.55C104.22 248.18 102.32 246.29 102.32 243.95C102.32 241.61 104.09 239.87 106.31 239.75H106.88C108.04 239.75 109.09 240.22 109.86 240.98V240.97Z" fill="#008081"/>
</svg>
