<svg width="307" height="264" viewBox="0 0 307 264" fill="none" xmlns="http://www.w3.org/2000/svg">
<path d="M114.81 185.44H126.31C127.14 185.44 127.81 184.77 127.81 183.94C127.81 183.11 127.14 182.44 126.31 182.44H114.81C113.98 182.44 113.31 183.11 113.31 183.94C113.31 184.77 113.98 185.44 114.81 185.44Z" fill="#008082"/>
<path d="M114.81 177.47H126.31C127.14 177.47 127.81 176.8 127.81 175.97C127.81 175.14 127.14 174.47 126.31 174.47H114.81C113.98 174.47 113.31 175.14 113.31 175.97C113.31 176.8 113.98 177.47 114.81 177.47Z" fill="#008082"/>
<path d="M280.5 243.33C275.79 243.33 272.2 244.16 269.18 245.43C266.18 246.69 263.8 248.37 261.55 249.94C259.28 251.53 257.14 253.03 254.49 254.14C251.86 255.25 248.67 256 244.34 256C240.01 256 236.81 255.24 234.18 254.14C231.52 253.02 229.38 251.53 227.11 249.94C224.86 248.36 222.48 246.69 219.49 245.43C216.47 244.16 212.88 243.33 208.18 243.33C203.47 243.33 199.88 244.16 196.86 245.43C193.86 246.69 191.48 248.37 189.23 249.94C186.96 251.53 184.82 253.03 182.17 254.14C179.54 255.25 176.35 256 172.02 256C167.69 256 164.49 255.24 161.86 254.14C159.2 253.02 157.06 251.53 154.79 249.94C152.54 248.36 150.16 246.69 147.17 245.43C144.15 244.16 140.57 243.33 135.86 243.33C131.15 243.33 127.56 244.16 124.54 245.43C121.54 246.69 119.16 248.37 116.91 249.94C114.64 251.53 112.5 253.03 109.85 254.14C107.22 255.25 104.03 256 99.7 256C95.37 256 92.17 255.24 89.54 254.14C86.88 253.02 84.74 251.53 82.47 249.94C80.22 248.36 77.84 246.69 74.85 245.43C71.83 244.16 68.24 243.33 63.54 243.33C63.39 243.33 63.25 243.36 63.12 243.4C62.99 243.36 62.85 243.33 62.7 243.33C57.99 243.33 54.4 244.16 51.38 245.43C48.38 246.69 46 248.37 43.75 249.94C41.48 251.53 39.3399 253.03 36.6899 254.14C34.0599 255.25 30.87 256 26.54 256C25.71 256 25.04 256.67 25.04 257.5C25.04 258.33 25.71 259 26.54 259C31.25 259 34.83 258.17 37.85 256.9C40.84 255.64 43.23 253.96 45.47 252.39C47.74 250.8 49.88 249.3 52.54 248.19C55.17 247.08 58.37 246.33 62.7 246.33C62.85 246.33 62.99 246.3 63.12 246.26C63.25 246.3 63.39 246.33 63.54 246.33C67.87 246.33 71.0599 247.09 73.6899 248.19C76.3499 249.31 78.48 250.8 80.75 252.39C83 253.97 85.38 255.64 88.38 256.9C91.4 258.17 94.99 259 99.7 259C104.41 259 107.99 258.17 111.01 256.9C114 255.64 116.39 253.96 118.63 252.39C120.9 250.8 123.04 249.3 125.7 248.19C128.33 247.08 131.53 246.33 135.86 246.33C140.19 246.33 143.38 247.09 146.01 248.19C148.67 249.31 150.8 250.8 153.07 252.39C155.32 253.97 157.7 255.64 160.7 256.9C163.72 258.17 167.31 259 172.02 259C176.73 259 180.31 258.17 183.33 256.9C186.32 255.64 188.71 253.96 190.95 252.39C193.22 250.8 195.36 249.3 198.02 248.19C200.65 247.08 203.85 246.33 208.18 246.33C212.51 246.33 215.7 247.09 218.33 248.19C220.99 249.31 223.12 250.8 225.39 252.39C227.64 253.97 230.02 255.64 233.02 256.9C236.04 258.17 239.63 259 244.34 259C249.05 259 252.63 258.17 255.65 256.9C258.64 255.64 261.03 253.96 263.27 252.39C265.54 250.8 267.68 249.3 270.34 248.19C272.97 247.08 276.17 246.33 280.5 246.33C281.33 246.33 282 245.66 282 244.83C282 244 281.33 243.33 280.5 243.33Z" fill="#008082"/>
<path d="M280.5 231.03C275.79 231.03 272.2 231.86 269.17 233.13C266.18 234.39 263.8 236.07 261.55 237.64C259.27 239.24 257.14 240.73 254.48 241.85C251.85 242.96 248.66 243.71 244.33 243.71C240 243.71 236.81 242.96 234.17 241.85C231.51 240.73 229.38 239.24 227.1 237.64C224.86 236.07 222.47 234.39 219.48 233.13C217.35 232.23 214.94 231.57 212.05 231.25V223.24H218.47C220.42 223.24 222.01 221.67 222.01 219.7V205.59C222.01 205.46 222.02 205.1 221.92 204.72L219.56 195.36C219.38 194.61 218.92 194.01 218.34 193.6C217.76 193.2 217.04 192.98 216.35 192.98H212.05V148.76C212.05 146.8 210.46 145.23 208.51 145.23H203.14C201.19 145.23 199.59 146.8 199.59 148.76V192.98H196.03C195.46 188.74 192.57 185.24 188.67 183.78C190.18 182.47 191.14 180.54 191.14 178.38C191.14 174.41 187.91 171.21 183.94 171.21C182.17 171.21 180.55 171.85 179.29 172.91C179.23 172.94 179.17 172.98 179.12 173.03L167.33 183.03H165.71L159.88 152.52C159.53 150.71 157.95 149.41 156.12 149.41H151.96C150.04 149.41 148.37 150.85 148.16 152.81L143.76 192.98H142.97V167.45C142.97 165.49 141.35 163.89 139.4 163.89H106.15V148.76C106.15 146.8 104.56 145.23 102.61 145.23H97.24C95.29 145.23 93.7 146.8 93.7 148.76V192.98H90.6C89.17 192.98 87.79 193.89 87.4 195.34H87.39V195.37L85.0601 204.72C84.9601 205.1 84.96 205.46 84.96 205.59V219.7C84.96 221.67 86.56 223.24 88.51 223.24H93.7V243.14C92.14 242.81 90.76 242.37 89.51 241.85C86.85 240.73 84.7099 239.24 82.4399 237.64C80.1899 236.07 77.8099 234.39 74.8199 233.13C71.7999 231.86 68.21 231.03 63.51 231.03C63.36 231.03 63.22 231.06 63.09 231.1C62.95 231.06 62.81 231.03 62.67 231.03C57.95 231.03 54.36 231.86 51.34 233.13C48.34 234.39 45.96 236.07 43.71 237.64C41.44 239.24 39.3 240.73 36.65 241.85C34.02 242.96 30.83 243.71 26.5 243.71C25.67 243.71 25 244.38 25 245.21C25 246.04 25.67 246.71 26.5 246.71C31.21 246.71 34.7901 245.88 37.8101 244.61C40.8001 243.35 43.1901 241.68 45.4301 240.1C47.7101 238.51 49.85 237.01 52.5 235.89C55.14 234.79 58.33 234.03 62.67 234.03C62.81 234.03 62.95 234 63.09 233.96C63.22 234 63.36 234.03 63.51 234.03C67.84 234.03 71.03 234.79 73.66 235.89C76.31 237.01 78.45 238.51 80.72 240.1C82.97 241.68 85.35 243.35 88.35 244.61C91.37 245.88 94.96 246.71 99.67 246.71C104.38 246.71 107.97 245.88 110.98 244.61C113.98 243.35 116.36 241.68 118.61 240.1C120.88 238.51 123.02 237.01 125.68 235.89C128.31 234.79 131.5 234.03 135.84 234.03C140.18 234.03 143.36 234.79 145.99 235.89C148.64 237.01 150.78 238.51 153.05 240.1C155.3 241.68 157.68 243.35 160.68 244.61C163.7 245.88 167.29 246.71 172 246.71C176.71 246.71 180.3 245.88 183.32 244.61C186.31 243.35 188.69 241.68 190.94 240.1C193.21 238.51 195.35 237.01 198.01 235.89C200.64 234.79 203.83 234.03 208.17 234.03C210.34 234.03 212.22 234.22 213.88 234.55C215.55 234.87 217 235.34 218.32 235.89C220.97 237.01 223.11 238.51 225.38 240.1C227.63 241.68 230.01 243.35 233.01 244.61C236.03 245.88 239.62 246.71 244.33 246.71C249.04 246.71 252.63 245.88 255.65 244.61C258.64 243.35 261.02 241.68 263.27 240.1C265.54 238.51 267.68 237.01 270.34 235.89C272.97 234.79 276.16 234.03 280.5 234.03C281.33 234.03 282 233.36 282 232.53C282 231.7 281.33 231.03 280.5 231.03ZM202.59 148.76C202.59 148.47 202.83 148.23 203.14 148.23H208.51C208.82 148.23 209.05 148.47 209.05 148.76V192.98H202.59V148.76ZM183.94 174.21C186.27 174.21 188.14 176.09 188.14 178.38C188.14 180.67 186.27 182.55 183.94 182.55C181.61 182.55 179.74 180.68 179.74 178.38C179.74 176.08 181.61 174.21 183.94 174.21ZM176.77 178.96C176.89 180.51 177.51 181.92 178.46 183.03H171.96L176.77 178.96ZM184.61 186.03C188.8 186.03 192.28 189.04 193 192.98H167.61L166.29 186.03H184.61ZM151.14 153.13C151.18 152.74 151.53 152.41 151.96 152.41H156.12C156.51 152.41 156.86 152.69 156.94 153.09L164.56 192.98H146.78L151.14 153.13ZM139.4 166.89C139.71 166.89 139.97 167.16 139.97 167.45V192.98H101.12V167.45C101.12 167.16 101.38 166.89 101.69 166.89H139.4ZM96.7 148.76C96.7 148.47 96.93 148.23 97.24 148.23H102.61C102.92 148.23 103.15 148.47 103.15 148.76V163.89H101.69C99.7399 163.89 98.12 165.49 98.12 167.45V192.98H96.7V148.76ZM90.29 196.12C90.29 196.12 90.3 196.1 90.35 196.06C90.41 196.02 90.49 195.98 90.6 195.98L142.97 195.99L143.43 195.98V196.01H196.15V195.98H216.35C216.46 195.98 216.56 196.02 216.61 196.06C216.64 196.08 216.65 196.09 216.65 196.1L218.94 205.16H88.04L90.29 196.12ZM88.51 220.24C88.2 220.24 87.96 219.99 87.96 219.7V208.16H219.01V219.7C219.01 219.99 218.78 220.24 218.47 220.24H88.51ZM103.15 243.53C102.08 243.64 100.93 243.71 99.67 243.71C98.62 243.71 97.63 243.67 96.7 243.58V223.26H103.15V243.53ZM199.59 232.16C198.62 232.44 197.71 232.77 196.84 233.13C193.85 234.39 191.46 236.07 189.22 237.64C186.94 239.24 184.81 240.73 182.15 241.85C179.52 242.96 176.33 243.71 172 243.71C167.67 243.71 164.47 242.96 161.84 241.85C159.18 240.73 157.05 239.24 154.77 237.64C152.52 236.07 150.14 234.39 147.15 233.13C144.13 231.86 140.54 231.03 135.84 231.03C133.48 231.03 131.41 231.24 129.54 231.6C127.68 231.97 126.02 232.49 124.51 233.13C121.52 234.39 119.13 236.07 116.89 237.64C114.61 239.24 112.48 240.73 109.82 241.85C108.71 242.31 107.5 242.71 106.15 243.02V223.24H199.59V232.16ZM209.05 231.05C208.76 231.04 208.47 231.03 208.17 231.03C206.11 231.03 204.27 231.2 202.59 231.48V223.26H209.05V231.05Z" fill="#008082"/>
</svg>
