<svg width="288" height="264" viewBox="0 0 288 264" fill="none" xmlns="http://www.w3.org/2000/svg">
<path d="M220.89 233.645H220.87C216.42 233.645 212.82 237.245 212.82 241.695V241.715C212.82 246.165 216.42 249.765 220.87 249.765H220.89C225.34 249.765 228.94 246.165 228.94 241.715V241.695C228.94 237.245 225.34 233.645 220.89 233.645ZM225.94 241.715C225.94 244.505 223.68 246.765 220.89 246.765H220.87C218.08 246.765 215.82 244.505 215.82 241.715V241.695C215.82 238.905 218.08 236.645 220.87 236.645H220.89C223.68 236.645 225.94 238.905 225.94 241.695V241.715Z" fill="#008081"/>
<path d="M175.94 233.645H175.92C171.47 233.645 167.87 237.245 167.87 241.695V241.715C167.87 246.165 171.47 249.765 175.92 249.765H175.94C180.39 249.765 183.99 246.165 183.99 241.715V241.695C183.99 237.245 180.39 233.645 175.94 233.645ZM180.99 241.715C180.99 244.505 178.73 246.765 175.94 246.765H175.92C173.13 246.765 170.87 244.505 170.87 241.715V241.695C170.87 238.905 173.13 236.645 175.92 236.645H175.94C178.73 236.645 180.99 238.905 180.99 241.695V241.715Z" fill="#008081"/>
<path d="M65.47 233.645H65.45C61 233.645 57.4 237.245 57.4 241.695V241.715C57.4 246.165 61 249.765 65.45 249.765H65.47C69.92 249.765 73.52 246.165 73.52 241.715V241.695C73.52 237.245 69.92 233.645 65.47 233.645ZM70.52 241.715C70.52 244.505 68.26 246.765 65.47 246.765H65.45C62.66 246.765 60.4 244.505 60.4 241.715V241.695C60.4 238.905 62.66 236.645 65.45 236.645H65.47C68.26 236.645 70.52 238.905 70.52 241.695V241.715Z" fill="#008081"/>
<path d="M257.24 210.215H239.79C249.36 205.475 255.94 195.615 255.94 184.225C255.94 168.205 242.96 155.235 226.95 155.235H215.86C215.15 151.255 211.68 148.235 207.5 148.235H189.5C185.32 148.235 181.85 151.255 181.14 155.235H168.86C168.15 151.255 164.68 148.235 160.5 148.235H142.5C138.32 148.235 134.85 151.255 134.14 155.235H120.21C104.2 155.235 91.22 168.205 91.22 184.225C91.22 195.615 97.8 205.475 107.36 210.215H74.99V169.405C74.99 167.535 73.47 166.025 71.6 166.025H45.66C44.62 166.025 43.63 166.485 42.95 167.275H42.9399L25.84 187.605L25.83 187.615C25.31 188.245 25 189.045 25 189.905V221.755H25.04C25.02 221.885 25 222.015 25 222.145V237.935C25 239.795 26.5 241.345 28.41 241.345H48.15C48.14 241.585 48.13 241.835 48.14 242.075C48.36 251.495 56.04 258.995 65.42 258.995H65.84C75.26 258.805 82.76 251.085 82.76 241.695V241.345H91.38C93.29 241.345 94.79 239.795 94.79 237.935V234.865H136.03V237.935C136.03 239.805 137.56 241.345 139.44 241.345H158.62C158.62 241.585 158.6 241.835 158.61 242.075C158.84 251.495 166.53 258.995 175.9 258.995H176.31C185.73 258.805 193.23 251.085 193.23 241.695V241.345H203.57C203.56 241.575 203.55 241.815 203.55 242.045V242.075C203.77 251.635 211.69 259.215 221.25 258.995C230.71 258.805 238.19 251.075 238.19 241.675V241.345H244.89C246.76 241.345 248.3 239.805 248.3 237.935V222.175C248.3 222.025 248.27 221.885 248.26 221.735H257.24C260.42 221.735 263 219.155 263 215.975C263 212.795 260.42 210.215 257.24 210.215ZM223 158.235H226.95C241.3 158.235 252.94 169.865 252.94 184.225C252.94 198.585 241.3 210.205 226.95 210.215H223V158.235ZM189.5 151.235H207.5C210.02 151.235 212.13 152.925 212.79 155.235H184.21C184.87 152.925 186.98 151.235 189.5 151.235ZM175 158.235H220V210.215H175V158.235ZM142.5 151.235H160.5C163.02 151.235 165.13 152.925 165.79 155.235H137.21C137.87 152.925 139.98 151.235 142.5 151.235ZM129 158.235H172V210.215H129V158.235ZM94.22 184.225C94.22 169.865 105.85 158.235 120.21 158.235H126V210.215H120.2C105.85 210.205 94.22 198.575 94.22 184.225ZM28 189.905C28 189.785 28.04 189.655 28.15 189.525L43.41 171.395V199.525C43.41 199.735 43.24 199.905 43.02 199.905H28V189.905ZM28 202.905H43.02C44.89 202.905 46.41 201.395 46.41 199.525V169.025H71.6C71.81 169.025 71.99 169.195 71.99 169.405V218.755H28V202.905ZM65.77 255.995C57.85 256.185 51.32 249.915 51.14 242.005C51.12 241.415 51.16 240.855 51.23 240.305L51.26 240.055V240.015C52.05 233.045 57.91 227.535 65.13 227.375C66.06 227.355 66.97 227.425 67.85 227.575C74.04 228.635 78.92 233.675 79.66 240.015V240.085C79.72 240.475 79.74 240.875 79.76 241.375C79.94 249.295 73.67 255.835 65.77 255.995ZM91.79 237.935C91.79 238.165 91.61 238.345 91.38 238.345H82.42C81.1 231.605 75.88 226.315 69.25 224.815C67.9 224.515 66.5001 224.345 65.0601 224.375C60.9301 224.475 57.16 226.015 54.24 228.505C51.32 230.995 49.24 234.445 48.49 238.345H28.41C28.18 238.345 28 238.165 28 237.935V222.145C28 221.935 28.17 221.765 28.39 221.765H91.38C91.61 221.765 91.79 221.945 91.79 222.175V237.935ZM136.03 231.865H94.79V222.175C94.79 222.025 94.77 221.885 94.75 221.735H136.03V231.865ZM190.23 241.365C190.41 249.285 184.14 255.835 176.24 255.995C168.34 256.185 161.79 249.905 161.61 242.005C161.59 241.445 161.63 240.925 161.69 240.405L161.73 240.015C162.31 234.855 165.68 230.505 170.32 228.525C171.95 227.825 173.72 227.415 175.6 227.375C183.06 227.215 189.31 232.765 190.13 240.015V240.055C190.19 240.495 190.23 240.915 190.23 241.335V241.365ZM221.19 255.995H221.18C213.29 256.185 206.74 249.915 206.55 242.025C206.55 241.345 206.58 240.755 206.66 240.195L206.68 240.015C207.36 233.915 211.94 228.935 217.91 227.685C218.76 227.505 219.64 227.395 220.54 227.375C228 227.215 234.25 232.765 235.1 240.015V240.045C235.15 240.455 235.17 240.865 235.2 241.375C235.35 249.295 229.1 255.835 221.19 255.995ZM245.3 237.935C245.3 238.035 245.26 238.135 245.18 238.225C245.09 238.305 244.99 238.345 244.89 238.345H237.86C236.27 230.225 229.03 224.195 220.48 224.375C219.38 224.405 218.32 224.525 217.29 224.745C210.51 226.175 205.22 231.575 203.91 238.345H192.89C191.32 230.225 184.09 224.195 175.53 224.375C174.44 224.405 173.37 224.525 172.34 224.745C165.56 226.175 160.27 231.575 158.97 238.345H139.44C139.34 238.345 139.23 238.305 139.15 238.225C139.07 238.135 139.03 238.035 139.03 237.935V221.765H244.89C244.99 221.765 245.09 221.805 245.18 221.885C245.26 221.965 245.3 222.075 245.3 222.175V237.935ZM257.24 218.735H77.77C76.25 218.735 75.01 217.495 75.01 215.975V213.215H257.24C258.76 213.215 260 214.445 260 215.975C260 217.505 258.76 218.735 257.24 218.735Z" fill="#008081"/>
<path d="M151.94 178.015C151.11 178.015 150.44 178.685 150.44 179.515V189.445C150.44 190.275 151.11 190.945 151.94 190.945C152.77 190.945 153.44 190.275 153.44 189.445V179.515C153.44 178.685 152.77 178.015 151.94 178.015Z" fill="#008081"/>
<path d="M158.87 178.015C158.04 178.015 157.37 178.685 157.37 179.515V189.445C157.37 190.275 158.04 190.945 158.87 190.945C159.7 190.945 160.37 190.275 160.37 189.445V179.515C160.37 178.685 159.7 178.015 158.87 178.015Z" fill="#008081"/>
<path d="M144.99 178.015C144.16 178.015 143.49 178.685 143.49 179.515V189.445C143.49 190.275 144.16 190.945 144.99 190.945C145.82 190.945 146.49 190.275 146.49 189.445V179.515C146.49 178.685 145.82 178.015 144.99 178.015Z" fill="#008081"/>
<path d="M199.1 178.015C198.27 178.015 197.6 178.685 197.6 179.515V189.445C197.6 190.275 198.27 190.945 199.1 190.945C199.93 190.945 200.6 190.275 200.6 189.445V179.515C200.6 178.685 199.93 178.015 199.1 178.015Z" fill="#008081"/>
<path d="M206.03 178.015C205.2 178.015 204.53 178.685 204.53 179.515V189.445C204.53 190.275 205.2 190.945 206.03 190.945C206.86 190.945 207.53 190.275 207.53 189.445V179.515C207.53 178.685 206.86 178.015 206.03 178.015Z" fill="#008081"/>
<path d="M192.17 178.015C191.34 178.015 190.67 178.685 190.67 179.515V189.445C190.67 190.275 191.34 190.945 192.17 190.945C193 190.945 193.67 190.275 193.67 189.445V179.515C193.67 178.685 193 178.015 192.17 178.015Z" fill="#008081"/>
</svg>
