<svg width="290" height="183" viewBox="0 0 290 183" fill="none" xmlns="http://www.w3.org/2000/svg">
<path d="M171.78 135.875C171.78 135.875 171.78 135.825 171.78 135.805C171.78 135.375 171.76 134.945 171.71 134.515C171.71 134.455 171.69 134.405 171.69 134.345C171.36 131.345 170.06 128.575 167.93 126.435C167.78 126.285 167.62 126.155 167.46 126.015C167.39 125.945 167.32 125.885 167.24 125.815C167.06 125.655 166.88 125.505 166.69 125.355C166.57 125.255 166.44 125.165 166.32 125.075C166.04 124.865 165.74 124.665 165.45 124.485C165.29 124.385 165.13 124.285 164.97 124.195C164.79 124.095 164.61 124.005 164.42 123.915C164.27 123.835 164.11 123.765 163.95 123.695C163.77 123.615 163.58 123.525 163.39 123.455C163.2 123.375 163.01 123.315 162.81 123.245C162.56 123.165 162.32 123.085 162.07 123.015C161.82 122.945 161.57 122.885 161.32 122.825C161.17 122.795 161.02 122.765 160.86 122.735C160.61 122.695 160.36 122.655 160.1 122.625C159.97 122.605 159.84 122.595 159.7 122.585C159.31 122.555 158.92 122.525 158.53 122.525H77.8002C74.2502 122.525 70.9202 123.915 68.4202 126.435C65.9202 128.965 64.5402 132.325 64.5402 135.885C64.5402 138.955 65.6102 141.955 67.5302 144.315C67.8302 144.705 68.1602 145.025 68.4202 145.295C70.9302 147.815 74.2502 149.205 77.8002 149.205H158.53C158.83 149.205 159.12 149.185 159.42 149.165C159.43 149.165 159.45 149.165 159.46 149.165C162.66 148.945 165.63 147.595 167.91 145.295C170.39 142.785 171.76 139.465 171.76 135.875H171.78ZM159.77 145.495C159.37 145.545 158.96 145.575 158.55 145.575C155.96 145.575 153.55 144.565 151.72 142.725C151.52 142.515 151.3 142.315 151.09 142.045C149.65 140.265 148.89 138.135 148.89 135.875C148.89 133.265 149.89 130.835 151.72 128.995C153.55 127.165 155.97 126.145 158.54 126.145C158.98 126.145 159.42 126.185 159.85 126.245C159.92 126.245 159.99 126.265 160.06 126.275C163.29 126.795 166.06 128.945 167.37 132.055C167.89 133.245 168.15 134.525 168.15 135.875C168.15 138.455 167.15 140.875 165.32 142.725C164.74 143.305 164.19 143.745 163.54 144.135C162.47 144.815 161.27 145.255 160 145.455C159.92 145.465 159.83 145.485 159.75 145.495H159.77ZM70.9902 142.735C70.7902 142.525 70.5702 142.325 70.3602 142.055C68.9202 140.275 68.1602 138.145 68.1602 135.885C68.1602 133.275 69.1602 130.845 70.9902 129.005C72.8202 127.175 75.2502 126.155 77.8202 126.155C80.3902 126.155 82.8102 127.165 84.6402 129.005C84.8702 129.235 85.0802 129.465 85.2802 129.715C86.6802 131.445 87.4402 133.615 87.4402 135.885C87.4402 137.825 86.8902 139.675 85.8402 141.245C85.4902 141.775 85.0902 142.265 84.6402 142.725C82.8202 144.565 80.3902 145.575 77.8202 145.575C75.2502 145.575 72.8202 144.565 70.9902 142.725V142.735ZM86.9102 145.585C87.0102 145.485 87.1002 145.405 87.2002 145.305C88.1302 144.365 88.9002 143.305 89.5102 142.165C90.5202 140.265 91.0502 138.125 91.0502 135.885C91.0502 133.645 90.5202 131.495 89.5102 129.585C88.9102 128.435 88.1302 127.375 87.2002 126.435C87.1002 126.335 87.0102 126.255 86.9102 126.155H149.47C149.37 126.245 149.26 126.335 149.17 126.435C146.67 128.965 145.29 132.325 145.29 135.885C145.29 138.955 146.36 141.955 148.28 144.315C148.58 144.705 148.91 145.025 149.17 145.295C149.27 145.395 149.38 145.475 149.48 145.575H86.9202L86.9102 145.585Z" fill="#008081"/>
<path d="M124.46 59.2351L116.83 42.1651H101V86.0951H124.45V59.2451L124.46 59.2351ZM120.85 82.4551H104.61V45.8051H114.5L120.85 60.0151V82.4551Z" fill="#008081"/>
<path d="M171.78 90.2351H168.17V103.005H171.78V90.2351Z" fill="#008081"/>
<path d="M162.22 90.2351H158.61V103.005H162.22V90.2351Z" fill="#008081"/>
<path d="M152.18 90.2351H148.57V103.005H152.18V90.2351Z" fill="#008081"/>
<path d="M228.8 143.045C219.8 143.045 212.49 135.675 212.49 126.615V117.475C212.49 115.595 211.38 113.905 209.68 113.165L199.88 108.885C198.42 108.255 196.78 108.405 195.47 109.275C194.15 110.145 193.37 111.615 193.37 113.205V129.895H179.04C177.58 124.665 174.28 120.285 169.94 117.415H185.46C188.23 117.415 190.49 115.145 190.49 112.345V80.9051C190.49 78.1151 188.24 75.8351 185.46 75.8351H171.8V51.9651H168.19V75.8351H156.9V64.2151H161.64V56.5651C161.64 53.8251 159.43 51.6051 156.72 51.6051H145.05C142.33 51.6051 140.13 53.8351 140.13 56.5651V64.2151H144.85V75.8351H136.07L130.71 37.4851H135.82V24.9951H60.8202V37.4751H66.9302V73.9251H59.1402C57.6802 73.9251 56.4902 75.1251 56.4902 76.5951V112.345C56.4902 115.135 58.7402 117.415 61.5202 117.415H66.3802C65.1602 118.225 64.0002 119.175 62.9402 120.235C58.7802 124.425 56.4902 129.985 56.4902 135.895C56.4902 148.085 66.3402 158.005 78.4402 158.005H157.96C163.82 158.005 169.33 155.715 173.46 151.545C174.92 150.075 176.13 148.425 177.08 146.685H193.39V153.305C193.39 155.895 195.48 158.005 198.06 158.005H228.84C231.41 158.015 233.51 155.905 233.51 153.315V147.755C233.51 145.165 231.42 143.055 228.84 143.055L228.8 143.045ZM143.71 60.5751V56.5651C143.71 55.8351 144.3 55.2451 145.02 55.2451H156.69C157.41 55.2451 158 55.8351 158 56.5651V60.5751H143.71ZM153.27 64.2151V75.8351H148.43V64.2151H153.27ZM64.4002 33.8451V28.6351H132.19V33.8451H64.4002ZM70.5102 37.4851H127.04L135.45 97.6551H70.5102V90.5351H93.4702V76.6051C93.4702 75.1351 92.2802 73.9351 90.8202 73.9351H70.5102V37.4851ZM60.0702 77.5551H68.9402L89.7102 77.6751C89.7902 77.6751 89.8702 77.7451 89.8702 77.8351V86.8951H60.0802V77.5551H60.0702ZM61.4902 113.775C60.7102 113.775 60.0702 113.135 60.0702 112.345V90.6551H66.9002V101.295H139.61L136.56 79.4751H185.45C186.24 79.4751 186.87 80.1051 186.87 80.9051V112.345C186.87 113.135 186.23 113.775 185.45 113.775H61.4902ZM157.93 154.355H78.4102C68.2902 154.355 60.0702 146.065 60.0702 135.875C60.0702 130.945 62.0102 126.275 65.4602 122.805C68.9102 119.325 73.5202 117.415 78.4102 117.415H158.47C166.77 117.665 173.93 123.575 175.78 131.715L175.87 132.115C176.13 133.315 176.27 134.575 176.27 135.885C176.27 138.775 175.63 141.515 174.35 144.065C173.51 145.845 172.34 147.495 170.89 148.965C167.44 152.455 162.83 154.365 157.94 154.365L157.93 154.355ZM178.7 143.045C178.73 142.935 178.76 142.835 178.79 142.745C178.92 142.365 179.03 141.975 179.14 141.585C179.18 141.445 179.22 141.305 179.25 141.165C179.38 140.655 179.48 140.135 179.57 139.615C179.59 139.525 179.6 139.425 179.61 139.335C179.68 138.885 179.73 138.435 179.78 137.975C179.79 137.825 179.81 137.675 179.82 137.525C179.86 136.985 179.89 136.445 179.89 135.895C179.89 135.895 179.89 135.885 179.89 135.875C179.89 135.085 179.85 134.295 179.77 133.525H193.37V143.035H178.71L178.7 143.045ZM229.85 153.295C229.85 153.885 229.37 154.365 228.79 154.365H198.02C197.43 154.365 196.96 153.885 196.96 153.295V113.195C196.96 112.685 197.3 112.405 197.44 112.315C197.54 112.245 197.74 112.135 198.02 112.135H198.01C198.14 112.125 198.29 112.145 198.43 112.205L208.23 116.485C208.61 116.655 208.87 117.045 208.87 117.465V126.605C208.87 137.665 217.81 146.675 228.79 146.675C229.38 146.675 229.85 147.155 229.85 147.745V153.305V153.295Z" fill="#008081"/>
<path d="M93.4702 42.1551H76.3802V68.3051H93.4702V42.1551ZM89.8602 64.6651H79.9902V45.7851H89.8602V64.6651Z" fill="#008081"/>
</svg>
