<svg width="290" height="183" viewBox="0 0 290 183" fill="none" xmlns="http://www.w3.org/2000/svg">
<path d="M226.68 34.8348H207.32C206.31 34.8348 205.5 35.6348 205.5 36.6248C205.5 37.6148 206.31 38.4148 207.32 38.4148H226.68C227.69 38.4148 228.5 37.6148 228.5 36.6248C228.5 35.6348 227.69 34.8348 226.68 34.8348Z" fill="#008081"/>
<path d="M219.45 42.0248H200.09C199.08 42.0248 198.27 42.8248 198.27 43.8148C198.27 44.8048 199.08 45.6048 200.09 45.6048H219.45C220.46 45.6048 221.27 44.8048 221.27 43.8148C221.27 42.8248 220.46 42.0248 219.45 42.0248Z" fill="#008081"/>
<path d="M89.89 145.595H70.53C69.52 145.595 68.71 146.395 68.71 147.385C68.71 148.375 69.52 149.175 70.53 149.175H89.89C90.9 149.175 91.71 148.375 91.71 147.385C91.71 146.395 90.9 145.595 89.89 145.595Z" fill="#008081"/>
<path d="M82.68 152.785H63.32C62.31 152.785 61.5 153.585 61.5 154.575C61.5 155.565 62.31 156.365 63.32 156.365H82.68C83.69 156.365 84.5 155.565 84.5 154.575C84.5 153.585 83.69 152.785 82.68 152.785Z" fill="#008081"/>
<path d="M204.81 82.2648L195.39 81.9648C194.82 79.1748 194.03 76.4748 193.05 73.8548L201.61 69.2548L202.96 68.5248L202.21 67.1948L193.08 50.8648L182.48 56.5648C180.69 54.6048 178.77 52.7748 176.72 51.0748L183.02 40.6448L181.7 39.8748L166.65 31.1448L165.38 30.4048L164.61 31.6648L158.87 41.1948C156.45 40.3948 153.95 39.7548 151.4 39.2848V26.6348H130.91V39.2648C129.17 39.5848 127.45 39.9848 125.77 40.4548L120.45 30.6548L119.75 29.3548L118.44 30.0448L103 38.0848L101.64 38.7848L102.37 40.1348L107.48 49.5548C105.65 50.9348 103.9 52.4348 102.26 54.0348L93.21 48.3748L91.96 47.5948L91.16 48.8348L80.93 64.5848L82.22 65.3948L90.58 70.6148C89.43 73.1448 88.48 75.7848 87.74 78.4948L76.67 78.1348L76 98.2848L86.17 98.6248C86.51 101.655 87.09 104.615 87.91 107.485L80.68 111.375L79.34 112.105L80.08 113.435L88.5 128.475L89.22 129.765L90.52 129.065L97.1 125.505C99.09 128.075 101.3 130.455 103.71 132.635L100.08 138.675L99.29 139.985L100.61 140.745L115.65 149.485L116.93 150.225L121.11 143.305C124.25 144.495 127.52 145.425 130.91 146.045V153.995H151.4V146.055C153.91 145.595 156.36 144.975 158.73 144.195L161.85 149.955L162.56 151.255L163.87 150.575L179.3 142.515L180.65 141.815L179.92 140.475L176.61 134.355C178.86 132.515 180.95 130.515 182.87 128.345L190.34 133.025L191.14 131.785L201.37 116.035L200.07 115.225L193.25 110.955C194.29 108.115 195.09 105.175 195.63 102.145L205.64 102.475L206.31 82.3148L204.81 82.2648ZM202.74 99.3848L194.44 99.1048L193.11 99.0648L192.91 100.385C192.34 104.075 191.37 107.635 190.04 111.035L189.58 112.195L190.64 112.855L197.19 116.955L189.43 128.915L182.29 124.435L181.45 125.435C179.17 128.145 176.6 130.595 173.78 132.795L172.78 133.575L173.38 134.695L176.56 140.565L163.79 147.235L160.77 141.665L160.16 140.535L158.95 140.965C155.98 142.015 152.87 142.815 149.66 143.325L148.4 143.525V150.995H133.91V143.525L132.65 143.325C128.61 142.675 124.72 141.565 121.03 140.075L119.85 139.595L115.89 146.145L103.43 138.915L106.91 133.135L107.57 132.045L106.61 131.225C103.66 128.675 101.01 125.815 98.71 122.695L97.94 121.645L90.4 125.715L83.45 113.295L90.4 109.555L91.49 108.965L91.12 107.785C90.04 104.345 89.3299 100.745 89.0099 97.0448L88.9 95.7148L87.57 95.6648L79.1 95.3848L79.57 81.2348L90.04 81.5748L90.33 80.3948C91.17 77.0148 92.34 73.7648 93.84 70.6948L94.43 69.4748L93.28 68.7648L85.11 63.6548L92.87 51.7048L101.67 57.2048L102.7 57.8448L103.54 56.9848C105.6 54.8748 107.87 52.9348 110.29 51.1848L111.36 50.4148L110.73 49.2548L105.74 40.0448L118.52 33.3848L124.29 44.0148L125.46 43.6548C127.79 42.9548 130.19 42.3948 132.65 42.0048L133.91 41.8048V29.6348H148.4V41.8148L149.66 42.0148C152.89 42.5348 156.04 43.3348 159.03 44.4048L160.18 44.8248L160.82 43.7748L166.42 34.4848L178.87 41.7048L173.48 50.6348L172.79 51.7748L173.83 52.5948C176.45 54.6548 178.86 56.9348 181.03 59.4248L181.81 60.3348L191.9 54.9048L198.85 67.3348L190.48 71.8348L189.3 72.4648L189.8 73.7148C191.08 76.9048 192.06 80.2348 192.69 83.6948L192.9 84.8848L194.11 84.9248L203.21 85.2148L202.74 99.3848Z" fill="#008081"/>
<path d="M158.56 121.715C153.26 124.555 147.24 126.055 141.15 126.055C123.74 126.055 108.72 113.905 105.41 97.1648C105.22 96.1848 104.27 95.5748 103.28 95.7448C102.29 95.9348 101.64 96.8748 101.84 97.8348C105.48 116.255 122.01 129.625 141.16 129.625C147.86 129.635 154.48 127.985 160.32 124.855C161.21 124.375 161.53 123.295 161.05 122.425C160.57 121.555 159.46 121.235 158.58 121.715H158.56Z" fill="#008081"/>
<path d="M134.72 55.1548C136.83 54.7848 138.99 54.5948 141.15 54.5948C161.22 54.5948 177.55 70.6248 177.55 90.3348C177.55 91.5148 177.5 92.7048 177.38 93.8548C177.28 94.8348 178.02 95.7148 179.02 95.8048H179.2H179.18C180.1 95.8148 180.89 95.1248 180.99 94.2148C181.12 92.9448 181.18 91.6448 181.18 90.3448C181.18 68.6748 163.22 51.0348 141.15 51.0348C138.79 51.0348 136.41 51.2348 134.09 51.6448C133.11 51.8248 132.44 52.7348 132.62 53.7148C132.8 54.6748 133.75 55.3348 134.73 55.1548H134.72Z" fill="#008081"/>
<path d="M125.69 66.5048C123.81 65.3848 121.59 65.0548 119.46 65.5748C117.31 66.0948 115.51 67.4048 114.38 69.2548C112.1 72.9348 113.17 77.7148 116.73 80.0848C116.89 80.2048 117.06 80.3248 117.18 80.3848C118.49 81.1548 119.94 81.5548 121.42 81.5548C122.09 81.5448 122.75 81.4748 123.42 81.3048C125.55 80.7848 127.35 79.4748 128.49 77.6248C130.38 74.5448 130.01 70.6848 127.58 68.0648C127.06 67.4548 126.43 66.9348 125.69 66.5048ZM125.39 75.7848C124.75 76.8048 123.74 77.5448 122.55 77.8348C121.35 78.1248 120.11 77.9448 119.06 77.3248L118.85 77.1948C116.83 75.8348 116.22 73.1748 117.49 71.1148C118.12 70.0748 119.13 69.3448 120.33 69.0548C120.69 68.9748 121.07 68.9248 121.43 68.9248H121.44C122.28 68.9248 123.09 69.1548 123.82 69.5748C124.22 69.8148 124.56 70.0848 124.86 70.4348C126.23 71.9148 126.44 74.0648 125.38 75.7948L125.39 75.7848Z" fill="#008081"/>
<path d="M144.12 83.1548C145.07 77.2548 143.48 71.1948 139.74 66.4748C140.21 66.4448 140.67 66.4148 141.15 66.4148C154.58 66.4148 165.51 77.1448 165.51 90.3348C165.51 91.3248 166.32 92.1248 167.33 92.1248H167.34C168.35 92.1148 169.16 91.3148 169.16 90.3248C169.16 75.1648 156.6 62.8348 141.17 62.8348C139.6 62.8348 138.04 62.9648 136.54 63.2248C135.66 62.4948 134.73 61.8048 133.72 61.2048C131.94 60.1548 130.07 59.3748 128.17 58.8648C125 58.0048 121.71 57.8748 118.56 58.4248C112.5 59.4548 106.89 62.9748 103.45 68.5748C99.83 74.4848 99.4 81.4248 101.71 87.4248C103.28 91.5248 106.13 95.1648 110.06 97.7548C110.21 98.0848 110.45 98.3748 110.79 98.5748C112.2 99.4048 113.68 100.085 115.2 100.585C119.44 110.915 129.76 117.805 141.17 117.805C142.2 117.805 143.24 117.745 144.25 117.635C145.26 117.525 145.97 116.645 145.86 115.675C145.75 114.685 144.85 113.985 143.86 114.095C142.97 114.195 142.07 114.235 141.17 114.235C132.01 114.235 123.67 109.125 119.53 101.255C120.55 101.385 121.57 101.465 122.58 101.455C125.75 101.415 128.87 100.685 131.73 99.3648L141.24 104.975L147.92 103.355L149.73 110.545L155.1 113.725L162.81 111.855L163.09 113.475L163.94 118.445C163.94 118.445 163.95 118.485 163.96 118.505L164.09 119.255L175.81 126.185L176.17 126.535L176.23 126.435L176.47 126.575L182.54 116.705L178.65 103.565L144.14 83.1548H144.12ZM143.47 86.9248L175.53 105.885L176.25 108.315L142.82 88.5448C143.06 88.0148 143.28 87.4748 143.48 86.9248H143.47ZM131.25 95.9348L128.45 97.4248C126.54 98.0648 124.55 98.4248 122.53 98.4448C121.04 98.4648 119.54 98.2848 118.06 97.9548L117.95 97.6648L117.06 97.4148C115.52 96.9848 114.03 96.3448 112.63 95.5148C112.34 95.3448 112.02 95.2648 111.7 95.2648C108.29 93.0248 105.83 89.8848 104.49 86.3548C102.5 81.1848 102.86 75.2248 105.98 70.1448C108.94 65.3248 113.78 62.2748 119.04 61.3748C121.77 60.9048 124.61 61.0148 127.35 61.7548C129 62.2048 130.61 62.8748 132.15 63.7848C133.05 64.3048 133.86 64.9148 134.63 65.5648C134.82 66.2048 135.34 66.6648 135.98 66.7948C139.88 70.7248 141.77 76.1248 141.27 81.4848L140.57 83.8248C140.13 85.7448 139.38 87.5648 138.34 89.2648C136.62 92.0748 134.15 94.3848 131.21 95.9448L131.25 95.9348ZM175.21 121.665L167.38 117.035L165.73 107.435L155.68 109.875L152.89 108.235L150.57 99.0248L141.82 101.145L135.58 97.4548C137.76 95.8848 139.61 93.9248 141.08 91.6948L177.45 113.205L177.62 112.935L178.59 116.195L175.22 121.685L175.21 121.665Z" fill="#008081"/>
</svg>
