<svg width="30" height="26" viewBox="0 0 30 26" fill="none" xmlns="http://www.w3.org/2000/svg">
<path d="M29.9622 9.25736C29.8993 8.89338 29.7735 8.62647 29.2072 8.32316L15 0.000244141L0.792785 8.32316C0.239094 8.6386 0.100671 8.90552 0.0377516 9.25736C0.0377516 9.25736 0 9.682 0 9.80332V22.8943C0 24.5929 1.44715 26.0002 3.22148 26.0002H26.7785C28.5654 26.0002 30 24.5929 30 22.8943V9.80332C30 9.682 29.9622 9.25736 29.9622 9.25736ZM15 1.46828L25.9732 7.89852H15H4.02685L15 1.46828ZM15 9.13603L28.4522 9.1603L15.3901 17.0222C15.2768 17.0707 15.2265 17.095 15.1762 17.1071C15.1133 17.1192 15.0503 17.1314 15 17.1314C14.9497 17.1314 14.8867 17.1192 14.8238 17.1071C14.7861 17.095 14.7357 17.0707 14.6099 17.0222L1.54782 9.1603L15 9.13603ZM28.7039 22.9065C28.7039 23.9256 27.8482 24.7627 26.7785 24.7627H3.22148C2.15185 24.7627 1.29614 23.9256 1.29614 22.9065V10.4827L13.9178 18.0777L14.0688 18.1505C14.2072 18.2233 14.3582 18.2718 14.5344 18.3204C14.698 18.3568 14.8364 18.3689 14.9874 18.3689C15.1384 18.3689 15.2768 18.3568 15.4404 18.3204C15.6166 18.2718 15.7676 18.2233 15.906 18.1505L16.057 18.0777L28.6787 10.4827V22.9065H28.7039Z" fill="#008081"/>
</svg>
