<svg width="290" height="183" viewBox="0 0 290 183" fill="none" xmlns="http://www.w3.org/2000/svg">
<path d="M194.725 120.66C193.805 118.42 191.575 116.84 189.045 116.84H183.305C183.185 116.81 183.055 116.79 182.915 116.79C182.775 116.79 182.655 116.81 182.525 116.84H163.375V101.75C168.155 97.8702 171.595 92.5902 173.185 86.6702C173.635 86.7402 174.095 86.7802 174.545 86.7802V86.8002C179.895 86.8002 184.255 82.4702 184.255 77.1302C184.255 73.2902 181.975 69.9302 178.655 68.3702C180.205 68.2502 181.645 67.5902 182.775 66.4802C183.995 65.2902 184.675 63.6002 184.675 61.8902C184.675 58.4702 182.005 55.6602 178.645 55.4102C177.225 43.1102 169.155 32.5202 157.635 27.8502V27.4902C157.635 24.1702 154.915 21.4502 151.585 21.4502H138.095C134.765 21.4502 132.065 24.1702 132.065 27.4902V27.8402C120.505 32.5202 112.465 43.1002 111.075 55.4202C109.555 55.5402 108.075 56.2102 106.995 57.2902C105.755 58.4802 105.045 60.1702 105.045 61.9002C105.045 65.2902 107.675 68.0902 111.005 68.3802C107.705 69.9402 105.465 73.3002 105.465 77.1202C105.465 82.4602 109.825 86.7902 115.175 86.7902H115.195C115.615 86.7902 116.045 86.7502 116.465 86.6902C118.075 92.6102 121.525 97.9102 126.335 101.79V116.8H100.675C98.0854 116.8 95.8153 118.45 94.9653 120.71C83.3553 122.59 74.7354 132.56 74.7354 144.46L75.0353 161.55L75.0554 161.53L94.5253 161.5H215.265V144.44C215.265 132.39 206.485 122.38 194.695 120.66H194.725ZM94.5253 158.04H78.5054L78.2454 144.44C78.2454 134.66 85.1153 126.35 94.5253 124.36V158.04ZM180.745 77.1202C180.745 80.7002 177.555 83.5802 173.965 83.2502V83.2302C174.175 81.8502 174.265 80.4402 174.265 79.0202C174.265 77.9902 174.195 76.9602 174.105 75.9502C173.945 74.2902 173.615 72.6702 173.165 71.0802C173.895 70.9202 174.595 70.8702 175.345 70.9902C178.415 71.3902 180.735 74.0102 180.735 77.1202H180.745ZM132.075 31.6602V42.0802C132.075 43.0402 132.875 43.8402 133.835 43.8402C134.795 43.8402 135.595 43.0402 135.595 42.0802V27.5002C135.595 26.1202 136.745 24.9702 138.105 24.9702H151.595C152.975 24.9702 154.125 26.1202 154.125 27.5002V42.0802C154.125 43.0402 154.925 43.8402 155.885 43.8402C156.845 43.8402 157.645 43.0402 157.645 42.0802H157.665V31.6602C167.165 36.0602 173.775 45.0302 175.115 55.4002H114.625C115.935 45.0102 122.555 36.0402 132.075 31.6602ZM108.575 61.9002C108.575 61.1002 108.905 60.3602 109.465 59.7902C110.025 59.2302 110.795 58.9002 111.575 58.9002H178.165C179.825 58.9002 181.165 60.2302 181.165 61.9002C181.165 62.7002 180.865 63.4402 180.295 64.0102C179.705 64.5702 178.955 64.9002 178.165 64.9002H111.575C109.905 64.9002 108.575 63.5702 108.575 61.9002ZM115.585 75.9902C115.495 76.9702 115.445 77.9802 115.445 79.0302C115.445 80.4702 115.555 81.8802 115.755 83.2402C112.145 83.5602 108.995 80.6802 108.995 77.1102C108.995 74.0002 111.315 71.3802 114.415 70.9802C114.665 70.9302 114.915 70.9302 115.165 70.9302C115.625 70.9302 116.095 71.0002 116.535 71.0902C116.095 72.6302 115.775 74.2602 115.585 75.9802V75.9902ZM119.665 84.8602L119.525 84.2102C119.195 82.5702 119.005 80.8202 119.005 79.0402C119.005 78.1002 119.025 77.2102 119.125 76.3502C119.125 76.3102 119.135 76.2802 119.145 76.2402C119.385 74.2202 119.795 72.3802 120.445 70.5902C120.675 69.8602 120.965 69.1402 121.285 68.4102H168.465C168.685 68.9202 168.905 69.4502 169.105 70.0002L169.325 70.6102C169.955 72.4602 170.405 74.3802 170.615 76.3402C170.705 77.2302 170.755 78.1102 170.755 79.0402C170.755 80.8202 170.595 82.5702 170.235 84.2302C168.965 90.3402 165.545 95.7702 160.575 99.5602C156.005 103.03 150.635 104.85 144.885 104.85C144.435 104.85 143.995 104.82 143.555 104.8C138.305 104.54 133.345 102.73 129.175 99.5402C124.385 95.8902 121.025 90.7002 119.675 84.8602H119.665ZM159.865 104.29V117.68L149.055 125.22C146.545 126.95 143.195 126.95 140.685 125.22L129.875 117.66V104.29C134.405 106.98 139.565 108.39 144.885 108.39C150.205 108.39 155.345 106.99 159.875 104.29H159.865ZM106.925 157.99H105.935V157.97H98.0754V122.91C98.0754 122.82 98.0953 122.63 98.0953 122.63L98.2354 121.98C98.6054 120.98 99.5554 120.29 100.675 120.29H106.915V158L106.925 157.99ZM181.155 157.99H110.445V120.28H127.485L138.665 128.1C140.515 129.39 142.675 130.02 144.855 130.02V130C145.545 130 146.235 129.93 146.915 129.8C148.385 129.53 149.805 128.96 151.065 128.08L162.205 120.31H181.155V158V157.99ZM191.685 157.99H184.675V120.3H189.035C190.325 120.3 191.455 121.24 191.635 122.57C191.685 122.69 191.685 122.8 191.685 122.92V157.99ZM211.765 157.99H195.205V124.28C204.775 126.15 211.765 134.49 211.765 144.43V157.99Z" fill="#008081"/>
<path d="M156.855 138.47H133.795C132.595 138.47 131.625 139.18 131.625 140.05C131.625 140.92 132.595 141.63 133.795 141.63H156.855C158.055 141.63 159.025 140.92 159.025 140.05C159.025 139.18 158.055 138.47 156.855 138.47Z" fill="#008081"/>
<path d="M156.855 145.84H133.795C132.595 145.84 131.625 146.55 131.625 147.42C131.625 148.29 132.595 149 133.795 149H156.855C158.055 149 159.025 148.29 159.025 147.42C159.025 146.55 158.055 145.84 156.855 145.84Z" fill="#008081"/>
</svg>
