<svg width="27" height="27" viewBox="0 0 27 27" fill="none" xmlns="http://www.w3.org/2000/svg">
<path d="M19.7925 27.0002C14.7655 27.0002 9.9026 22.8221 6.707 19.3129C3.66297 16.3466 -0.0125984 11.8023 3.24639e-05 7.15712C0.101079 2.53716 1.94518 1.35061 3.56193 0.315539L3.73876 0.201933C4.31978 -0.0505235 5.3555 -0.189375 6.22703 0.555373C7.01014 1.23701 10.3194 4.54419 10.4584 4.68305C11.0015 5.13747 11.8604 6.39975 10.9004 7.68728C10.4205 8.33105 9.52367 9.32826 8.77846 10.1487L9.13212 10.8178C10.4205 12.951 11.8351 14.6299 13.414 15.93C14.475 16.801 16.117 17.7603 16.8874 18.1895C17.4558 17.6593 18.58 16.6495 19.2873 16.1194C20.563 15.1726 21.8135 15.9931 22.3187 16.5738C22.6218 16.8767 25.7543 20.0072 26.4237 20.7772C27.1816 21.6355 27.0426 22.6706 26.8405 23.1503L26.6637 23.4406C25.628 25.0563 24.4407 26.8866 19.8431 26.9876L19.7925 27.0002ZM4.68607 1.32537C4.49661 1.32537 4.35767 1.37586 4.35767 1.37586L4.28188 1.43897C2.75355 2.42356 1.42732 3.26929 1.3389 7.16975C1.3389 11.3353 4.77448 15.5639 7.66694 18.3788C10.1678 21.118 15.0181 25.6496 19.7799 25.6496C23.6576 25.5612 24.5038 24.2485 25.489 22.7211L25.6153 22.5318C25.6027 22.5318 25.729 22.0647 25.3754 21.6608C24.7186 20.9034 21.3461 17.5331 21.3082 17.5079L21.2703 17.47C21.1188 17.2933 20.6009 16.7884 20.0578 17.1923C19.3378 17.7351 18.0116 18.9342 17.4179 19.4897L17.0643 19.8178L16.6348 19.5906C16.5338 19.5401 14.0455 18.2021 12.5298 16.9525C10.8373 15.5639 9.33421 13.7589 7.93219 11.4741L7.11119 9.93415L7.43959 9.58071C8.57636 8.3563 9.39737 7.40958 9.80155 6.87942C10.2184 6.32402 9.70051 5.80648 9.52368 5.655C9.44789 5.57927 6.07546 2.20897 5.31761 1.55258C5.09026 1.36324 4.8629 1.31274 4.67344 1.31274L4.68607 1.32537Z" fill="#008081"/>
</svg>
