<svg width="290" height="183" viewBox="0 0 290 183" fill="none" xmlns="http://www.w3.org/2000/svg">
<path d="M151.69 89.6647C148.93 90.4547 146.89 92.9947 146.89 96.0047C146.89 99.6447 149.86 102.605 153.5 102.605C154.58 102.605 155.6 102.335 156.5 101.875L165.6 110.955C165.95 111.305 166.42 111.485 166.88 111.485C167.34 111.485 167.81 111.305 168.16 110.955C168.87 110.255 168.87 109.105 168.16 108.395L159.15 99.4046C159.75 98.4146 160.11 97.2547 160.11 96.0047C160.11 92.9947 158.08 90.4547 155.31 89.6647V69.9347C155.31 68.9347 154.5 68.1246 153.49 68.1246C152.48 68.1246 151.67 68.9347 151.67 69.9347V89.6647H151.69ZM156.49 96.0146C156.49 97.6546 155.16 98.9846 153.51 98.9846C151.86 98.9846 150.53 97.6546 150.53 96.0146C150.53 94.3746 151.87 93.0446 153.51 93.0446C155.15 93.0446 156.49 94.3746 156.49 96.0146Z" fill="#008081"/>
<path d="M68.8395 97.8146H88.1795C89.1895 97.8146 89.9995 97.0046 89.9995 96.0046C89.9995 95.0046 89.1895 94.1946 88.1795 94.1946H68.8395C67.8295 94.1946 67.0195 95.0046 67.0195 96.0046C67.0195 97.0046 67.8295 97.8146 68.8395 97.8146Z" fill="#008081"/>
<path d="M69.3495 103.305C69.3495 104.305 70.1595 105.115 71.1695 105.115H90.5095C91.5195 105.115 92.3295 104.305 92.3295 103.305C92.3295 102.305 91.5195 101.495 90.5095 101.495H71.1695C70.1595 101.495 69.3495 102.305 69.3495 103.305Z" fill="#008081"/>
<path d="M197.24 39.9946H216.58C217.59 39.9946 218.4 39.1846 218.4 38.1846C218.4 37.1846 217.59 36.3746 216.58 36.3746H197.24C196.23 36.3746 195.42 37.1846 195.42 38.1846C195.42 39.1846 196.23 39.9946 197.24 39.9946Z" fill="#008081"/>
<path d="M197.75 45.4846C197.75 46.4846 198.56 47.2946 199.57 47.2946H218.91C219.92 47.2946 220.729 46.4846 220.729 45.4846C220.729 44.4846 219.92 43.6746 218.91 43.6746H199.57C198.56 43.6746 197.75 44.4846 197.75 45.4846Z" fill="#008081"/>
<path d="M72.1395 110.615C72.1395 111.615 72.9495 112.425 73.9595 112.425H93.2995C94.3095 112.425 95.1195 111.615 95.1195 110.615C95.1195 109.615 94.3095 108.805 93.2995 108.805H73.9595C72.9495 108.805 72.1395 109.615 72.1395 110.615Z" fill="#008081"/>
<path d="M213.85 142.055C213.15 141.345 212 141.345 211.28 142.055C210.57 142.755 210.57 143.905 211.28 144.615L215.979 149.305H171.62C179.72 146.565 187.15 142.005 193.37 135.795C204.02 125.175 209.88 111.045 209.88 96.0146C209.88 96.0146 209.88 96.0146 209.88 96.0046C209.88 95.9946 209.88 96.0046 209.88 95.9946C209.88 88.3546 208.37 80.9546 205.39 73.9846C202.6 67.4046 198.6 61.4846 193.51 56.3746C193.47 56.3146 193.42 56.2547 193.37 56.2047C193.31 56.1447 193.25 56.1046 193.18 56.0546C188.34 51.2746 182.78 47.4546 176.62 44.7046C176.61 44.7046 176.59 44.6846 176.58 44.6846C176.57 44.6846 176.55 44.6846 176.54 44.6746C176.21 44.5246 175.89 44.3746 175.55 44.2246C169.12 41.4846 162.31 40.0046 155.3 39.7846V33.9346H167.82C171.38 33.9346 174.29 31.0346 174.29 27.4746C174.29 23.9146 171.4 21.0146 167.82 21.0146H139.14C135.58 21.0146 132.67 23.9146 132.67 27.4746C132.67 31.0346 135.56 33.9346 139.14 33.9346H151.66V39.7846C144.65 40.0046 137.84 41.4846 131.41 44.2246C131.11 44.3546 130.82 44.4946 130.53 44.6246C130.48 44.6446 130.43 44.6546 130.38 44.6746C130.33 44.6946 130.29 44.7246 130.24 44.7546C124.05 47.5446 118.46 51.3846 113.6 56.2346C108.44 61.3846 104.4 67.3547 101.57 74.0047C98.5895 80.9847 97.0795 88.3946 97.0795 96.0346C97.0795 111.065 102.94 125.205 113.6 135.825C119.82 142.035 127.24 146.605 135.33 149.335H90.4695C89.4595 149.335 88.6495 150.145 88.6495 151.145C88.6495 152.145 89.4595 152.955 90.4695 152.955H216.13L211.419 157.655C210.709 158.355 210.709 159.505 211.419 160.215C211.769 160.565 212.24 160.745 212.7 160.745C213.16 160.745 213.629 160.565 213.979 160.215L222.979 151.235L213.799 142.075L213.85 142.055ZM136.33 27.4446C136.33 25.8846 137.6 24.6146 139.16 24.6146H167.84C169.4 24.6146 170.67 25.8846 170.67 27.4446C170.67 29.0046 169.4 30.2746 167.84 30.2746H139.16C137.6 30.2746 136.33 29.0046 136.33 27.4446ZM117.52 134.485L122.75 129.265C125.94 132.205 129.49 134.645 133.29 136.535L130.26 143.285C125.65 141.025 121.37 138.075 117.52 134.485ZM105.62 118.135L112.44 115.265C114.39 119.405 117 123.255 120.19 126.695L114.96 131.915C111.09 127.785 107.95 123.135 105.63 118.135H105.62ZM100.8 97.8146H108.2C108.39 102.705 109.36 107.455 111.04 111.925L104.22 114.795C102.16 109.415 101 103.695 100.8 97.8046V97.8146ZM104.24 77.2047L111.05 80.0746C109.34 84.5946 108.39 89.3246 108.2 94.1846H100.8C101 88.3346 102.15 82.6347 104.24 77.2047ZM114.96 60.0746L120.19 65.2947C117.02 68.7147 114.44 72.5546 112.47 76.7346L105.66 73.8647C108 68.8047 111.13 64.1746 114.97 60.0746H114.96ZM130.27 48.7246L133.3 55.4747C129.46 57.3847 125.93 59.8147 122.76 62.7447L117.53 57.5247C121.35 53.9647 125.62 51.0146 130.27 48.7346V48.7246ZM153.51 61.0847C154.52 61.0847 155.33 60.2747 155.33 59.2747V54.3946C160.36 54.6046 165.23 55.6946 169.85 57.6646C174.21 59.5246 178.19 62.0847 181.7 65.2947L178.75 68.2346C178.04 68.9346 178.04 70.0847 178.75 70.7947C179.1 71.1447 179.57 71.3246 180.03 71.3246C180.49 71.3246 180.96 71.1447 181.31 70.7947L184.26 67.8546C187.48 71.3646 190.06 75.3246 191.91 79.6946C193.88 84.3046 194.97 89.1646 195.18 94.1746H189.64C188.63 94.1746 187.82 94.9846 187.82 95.9846C187.82 96.9846 188.63 97.7946 189.64 97.7946H195.18C194.76 107.635 190.93 116.855 184.26 124.115L179.81 119.675C179.11 118.965 177.96 118.965 177.24 119.675C176.53 120.375 176.53 121.525 177.24 122.235L181.69 126.675C174.42 133.345 165.18 137.155 155.32 137.575V132.725C155.32 131.725 154.51 130.915 153.5 130.915C152.49 130.915 151.68 131.725 151.68 132.725V137.575C141.82 137.155 132.58 133.335 125.31 126.675L129.53 122.465C130.24 121.765 130.24 120.615 129.53 119.905C128.83 119.195 127.68 119.195 126.96 119.905L122.74 124.115C116.06 116.855 112.24 107.635 111.82 97.7946H116.05C117.06 97.7946 117.87 96.9846 117.87 95.9846C117.87 94.9846 117.06 94.1746 116.05 94.1746H111.82C112.03 89.1646 113.13 84.3046 115.09 79.6946C116.95 75.3346 119.52 71.3647 122.74 67.8647L126.52 71.6347C126.87 71.9847 127.34 72.1646 127.8 72.1646C128.26 72.1646 128.73 71.9847 129.08 71.6347C129.79 70.9347 129.79 69.7846 129.08 69.0746L125.3 65.3046C128.81 62.0946 132.78 59.5346 137.16 57.6746C141.78 55.7146 146.64 54.6247 151.67 54.4047V59.2646C151.67 60.2646 152.48 61.0746 153.49 61.0746L153.51 61.0847ZM176.76 48.7246C181.41 51.0046 185.68 53.9546 189.5 57.5146L184.26 62.7447C181.09 59.8147 177.56 57.3846 173.73 55.4846L176.76 48.7346V48.7246ZM201.37 73.8647L194.54 76.7447C192.57 72.5547 189.98 68.7146 186.82 65.3046L192.06 60.0746C195.9 64.1746 199.02 68.8047 201.37 73.8647ZM206.22 94.1746H198.81C198.62 89.3146 197.67 84.5847 195.96 80.0647L202.78 77.1847C204.86 82.6147 206.02 88.3046 206.21 94.1646L206.22 94.1746ZM202.799 114.785L195.97 111.905C197.65 107.435 198.62 102.685 198.81 97.7946H206.22C206.02 103.685 204.859 109.405 202.799 114.785ZM192.07 131.905L186.83 126.675C190.01 123.235 192.61 119.385 194.57 115.245L201.4 118.125C199.07 123.135 195.94 127.775 192.07 131.905ZM176.77 143.265L173.74 136.515C177.54 134.625 181.08 132.185 184.27 129.245L189.51 134.475C185.67 138.055 181.38 141.005 176.78 143.275L176.77 143.265ZM155.33 141.215C160.58 141.005 165.67 139.915 170.43 138.005L173.47 144.765C167.77 147.095 161.65 148.395 155.34 148.605V141.215H155.33ZM136.6 138.005C141.36 139.915 146.45 141.005 151.69 141.215V148.605C145.38 148.395 139.27 147.085 133.56 144.765L136.59 138.015L136.6 138.005ZM173.45 47.2446L170.42 53.9846C165.6 52.0446 160.54 50.9646 155.33 50.7546V43.3646C161.6 43.5746 167.68 44.8746 173.45 47.2346V47.2446ZM151.7 50.7646C146.49 50.9646 141.43 52.0446 136.61 53.9846L133.58 47.2446C139.35 44.8846 145.43 43.5846 151.7 43.3746V50.7646Z" fill="#008081"/>
<path d="M129.03 158.365H68.8395C67.8295 158.365 67.0195 159.175 67.0195 160.175C67.0195 161.175 67.8295 161.985 68.8395 161.985H129.03C130.04 161.985 130.85 161.175 130.85 160.175C130.85 159.175 130.04 158.365 129.03 158.365Z" fill="#008081"/>
</svg>
