<svg width="309" height="264" viewBox="0 0 309 264" fill="none" xmlns="http://www.w3.org/2000/svg">
<path d="M226.09 231.64H226.07C221.3 231.64 217.44 235.5 217.44 240.27V240.29C217.44 245.06 221.3 248.92 226.07 248.92H226.09C230.86 248.92 234.72 245.06 234.72 240.29V240.27C234.72 235.5 230.86 231.64 226.09 231.64ZM231.72 240.29C231.72 243.4 229.2 245.92 226.09 245.92H226.07C222.96 245.92 220.44 243.4 220.44 240.29V240.27C220.44 237.16 222.96 234.64 226.07 234.64H226.09C229.2 234.64 231.72 237.16 231.72 240.27V240.29Z" fill="#008082"/>
<path d="M177.18 231.64H177.16C172.39 231.64 168.53 235.5 168.53 240.27V240.29C168.53 245.06 172.39 248.92 177.16 248.92H177.18C181.95 248.92 185.81 245.06 185.81 240.29V240.27C185.81 235.5 181.95 231.64 177.18 231.64ZM182.81 240.29C182.81 243.4 180.29 245.92 177.18 245.92H177.16C174.05 245.92 171.53 243.4 171.53 240.29V240.27C171.53 237.16 174.05 234.64 177.16 234.64H177.18C180.29 234.64 182.81 237.16 182.81 240.27V240.29Z" fill="#008082"/>
<path d="M68.91 231.64H68.89C64.12 231.64 60.26 235.5 60.26 240.27V240.29C60.26 245.06 64.12 248.92 68.89 248.92H68.91C73.68 248.92 77.54 245.06 77.54 240.29V240.27C77.54 235.5 73.68 231.64 68.91 231.64ZM74.54 240.29C74.54 243.4 72.02 245.92 68.91 245.92H68.89C65.78 245.92 63.26 243.4 63.26 240.29V240.27C63.26 237.16 65.78 234.64 68.89 234.64H68.91C72.02 234.64 74.54 237.16 74.54 240.27V240.29Z" fill="#008082"/>
<path d="M251.83 190.94V190.91L251.98 189.45L251.83 190.94Z" fill="#008082"/>
<path d="M281.43 177.13L267.82 173.08L272.74 156.7C273.3 154.83 272.25 152.82 270.34 152.24L252.91 147.01H252.89C251.02 146.44 249 147.49 248.43 149.4L247.13 153.73L221.4 146.01L219.96 145.58L219.93 145.68C213.46 144.48 207 148.08 204.62 154.26L91.26 120.51H91.25C89.6 120.02 87.9 120.75 87.05 122.15C86.2 118.89 83.24 116.48 79.72 116.48C75.52 116.48 72.13 119.88 72.13 124.07C72.13 128.26 75.52 131.66 79.72 131.66C81.55 131.66 83.23 131.01 84.54 129.93C84.13 131.79 85.18 133.72 87.07 134.28L103.28 139.07V205.92C103.28 206.01 103.28 206.08 103.3 206.16H91.17V182.46C91.17 178.32 87.79 174.94 83.66 174.94C81.96 174.94 80.4 175.51 79.14 176.47V161.65C79.14 159.69 77.55 158.1 75.58 158.1H47.36C47 158.1 46.66 158.16 46.32 158.26C46.14 158.29 45.96 158.35 45.8 158.44C45.77 158.44 45.75 158.47 45.72 158.48C45.72 158.49 45.7 158.49 45.69 158.5C45.24 158.72 44.83 159.03 44.5 159.42H44.49L25.84 181.59C25.29 182.23 25 183.03 25 183.86V218.47H25.06C25.03 218.65 25 218.83 25 219.02V236.2C25 238.16 26.58 239.78 28.58 239.78H50.2C50.19 240.09 50.17 240.4 50.18 240.71C50.42 250.89 58.72 259 68.87 259C69.01 259 69.16 258.99 69.31 258.99C79.49 258.78 87.6 250.46 87.6 240.31C87.6 240.17 87.6 240.02 87.6 239.87V239.78H92.15C94.17 239.78 95.77 238.13 95.77 236.16V232.7H133.88V236.18C133.88 238.14 135.5 239.76 137.46 239.76H158.47C158.46 240.07 158.45 240.39 158.46 240.71C158.7 250.89 167.02 259 177.14 259C177.28 259 177.43 258.99 177.58 258.99H177.59C187.76 258.78 195.87 250.45 195.87 240.31V239.76H207.39C207.38 240.07 207.37 240.38 207.37 240.67V240.71C207.61 251.03 216.17 259.23 226.5 258.99C236.72 258.78 244.81 250.42 244.81 240.26V239.76H252.23C254.19 239.76 255.81 238.14 255.81 236.18V219.02C255.81 218.82 255.78 218.63 255.75 218.44H256.58C259.97 218.44 262.72 215.69 262.72 212.3C262.72 208.91 259.97 206.16 256.58 206.16H255.83V192.99C255.83 190.82 253.76 189.63 251.99 189.45L251.85 190.91V190.94L251.99 189.45L239.17 188.15L241.21 180.11L277.03 190.85H277.04C278.96 191.42 281.03 190.35 281.62 188.39L283.77 181.48H283.78V181.46C284.33 179.59 283.26 177.68 281.44 177.13H281.43ZM79.72 128.66C77.18 128.66 75.13 126.6 75.13 124.07C75.13 121.54 77.18 119.48 79.72 119.48C82.26 119.48 84.31 121.53 84.31 124.07C84.31 126.61 82.25 128.66 79.72 128.66ZM249.69 156.07L250.12 154.63L250.01 154.59L251.3 150.27C251.4 149.96 251.72 149.79 252.02 149.88H252.05L269.48 155.11C269.78 155.21 269.96 155.53 269.86 155.83L265.02 171.97L246.58 166.43L249.69 156.07ZM220.53 148.91L221.97 149.34V149.31L246.27 156.6L243.59 165.54L207.66 154.76C209.85 149.93 215.31 147.34 220.53 148.91ZM79.14 182.46C79.14 179.97 81.17 177.94 83.66 177.94C86.15 177.94 88.17 179.97 88.17 182.46V206.16H79.14V182.46ZM48.04 194.37V161.1H75.58C75.89 161.1 76.14 161.34 76.14 161.65V215.47H28V197.92H44.48C46.45 197.92 48.04 196.33 48.04 194.37ZM26.98 182.55L28.13 183.52L45.04 163.44V194.37C45.04 194.68 44.79 194.92 44.48 194.92H28V183.86C28 183.73 28.04 183.62 28.12 183.54L28.13 183.52L26.98 182.56V182.55ZM69.24 256C60.55 256.19 53.38 249.31 53.18 240.64C53.16 239.9 53.2 239.19 53.31 238.51V238.45C54.18 230.8 60.62 224.76 68.53 224.58C76.68 224.42 83.53 230.5 84.46 238.46L84.57 239.36C84.58 239.54 84.59 239.73 84.6 239.94C84.79 248.63 77.91 255.82 69.24 256ZM92.76 236.16C92.76 236.5 92.48 236.78 92.14 236.78H87.25C85.57 227.96 77.73 221.38 68.47 221.58H68.44C59.48 221.78 52.11 228.3 50.52 236.78H28.58C28.26 236.78 28 236.52 28 236.2V219.02C28 218.72 28.24 218.47 28.55 218.47H92.76V236.16ZM133.87 229.7H95.76V218.44H133.87V229.7ZM192.86 239.94C193.06 248.63 186.18 255.82 177.51 256C168.84 256.19 161.65 249.31 161.45 240.64C161.43 239.9 161.47 239.19 161.58 238.51V238.45C162.44 230.8 168.89 224.76 176.8 224.58C184.99 224.4 191.85 230.5 192.75 238.45V238.49C192.82 238.97 192.86 239.43 192.86 239.9V239.94ZM226.43 256H226.42C217.76 256.19 210.57 249.32 210.36 240.65C210.36 239.86 210.39 239.16 210.49 238.51V238.48L210.5 238.45C211.36 230.8 217.8 224.76 225.72 224.58C233.9 224.4 240.76 230.5 241.69 238.46V238.49C241.75 238.93 241.78 239.39 241.8 239.94C241.97 248.64 235.11 255.82 226.43 256ZM252.8 236.18C252.8 236.49 252.53 236.76 252.22 236.76H244.45C242.77 227.93 234.93 221.36 225.65 221.56C221.16 221.66 217.08 223.34 213.92 226.05C210.76 228.77 208.52 232.52 207.73 236.76H195.52C193.86 227.93 186.02 221.36 176.74 221.56C172.26 221.66 168.17 223.34 165.01 226.05C161.85 228.77 159.61 232.52 158.82 236.76H137.45C137.14 236.76 136.87 236.49 136.87 236.18V218.44H252.22C252.53 218.44 252.8 218.71 252.8 219.02V236.18ZM256.57 209.16C258.3 209.16 259.71 210.57 259.71 212.3C259.71 214.03 258.3 215.44 256.57 215.44H79.14V209.16H256.57ZM150.28 167.86H116.14C114.17 167.86 112.58 169.45 112.58 171.41V193.35H106.28V139.95L175.33 160.36H175.34L175.5 160.41L228.8 176.39L226.16 186.7C226.16 186.75 226.16 186.8 226.14 186.84L153.84 179.55V171.41C153.84 169.45 152.25 167.86 150.28 167.86ZM115.58 194.63V171.41C115.58 171.11 115.83 170.86 116.14 170.86H150.28C150.59 170.86 150.84 171.11 150.84 171.41V206.14H115.58V195.08C115.59 195.01 115.6 194.93 115.6 194.85C115.6 194.78 115.6 194.7 115.58 194.63ZM112.58 196.35V206.16H106.25C106.26 206.08 106.28 206.01 106.28 205.92V196.35H112.58ZM251.68 192.43C252.14 192.48 252.47 192.64 252.66 192.79C252.75 192.86 252.79 192.92 252.81 192.96C252.82 192.97 252.82 192.98 252.82 192.99V206.16H228V196.84C228 196.01 227.33 195.34 226.5 195.34C225.67 195.34 225 196.01 225 196.84V206.16H220.44V196.84C220.44 196.01 219.77 195.34 218.94 195.34C218.11 195.34 217.44 196.01 217.44 196.84V206.16H212.9V196.84C212.9 196.01 212.23 195.34 211.4 195.34C210.57 195.34 209.9 196.01 209.9 196.84V206.16H153.86V182.57L251.68 192.43ZM229.15 187.14L231.67 177.25L238.32 179.25L236.14 187.85L229.15 187.14ZM280.89 180.61L278.75 187.5H278.74V187.52C278.64 187.86 278.26 188.09 277.87 187.98L176.35 157.53L176.19 157.48L105.86 136.7C105.58 136.42 105.21 136.25 104.79 136.25C104.67 136.25 104.57 136.25 104.46 136.29L87.93 131.4C87.65 131.32 87.44 131.04 87.44 130.73C87.44 130.66 87.45 130.6 87.47 130.53L89.54 123.86C89.66 123.48 90.05 123.28 90.42 123.38L280.58 180C280.84 180.08 280.98 180.34 280.9 180.61H280.89Z" fill="#008082"/>
</svg>
