<svg width="307" height="264" viewBox="0 0 307 264" fill="none" xmlns="http://www.w3.org/2000/svg">
<path d="M106.65 177.67H94.28C93.45 177.67 92.78 178.34 92.78 179.17C92.78 180 93.45 180.67 94.28 180.67H106.65C107.48 180.67 108.15 180 108.15 179.17C108.15 178.34 107.48 177.67 106.65 177.67Z" fill="#008082"/>
<path d="M106.65 169.06H94.28C93.45 169.06 92.78 169.73 92.78 170.56C92.78 171.39 93.45 172.06 94.28 172.06H106.65C107.48 172.06 108.15 171.39 108.15 170.56C108.15 169.73 107.48 169.06 106.65 169.06Z" fill="#008082"/>
<path d="M280.5 243.23C275.79 243.23 272.19 244.06 269.17 245.34C266.17 246.61 263.79 248.29 261.54 249.88C259.27 251.48 257.13 252.98 254.48 254.11C251.85 255.22 248.66 255.98 244.33 255.98C240 255.98 236.8 255.22 234.17 254.11C231.51 252.99 229.37 251.48 227.1 249.88C224.85 248.29 222.47 246.61 219.48 245.34C216.46 244.06 212.87 243.23 208.17 243.23C203.46 243.23 199.86 244.06 196.84 245.34C193.84 246.61 191.46 248.29 189.21 249.88C186.94 251.48 184.8 252.98 182.15 254.11C179.52 255.22 176.33 255.98 172 255.98C167.67 255.98 164.47 255.22 161.84 254.11C159.18 252.99 157.04 251.48 154.77 249.88C152.52 248.29 150.14 246.61 147.15 245.34C144.13 244.06 140.54 243.23 135.84 243.23C131.13 243.23 127.53 244.06 124.51 245.34C121.51 246.61 119.13 248.29 116.88 249.88C114.61 251.48 112.47 252.98 109.82 254.11C107.19 255.22 104 255.98 99.67 255.98C95.34 255.98 92.14 255.22 89.51 254.11C86.85 252.99 84.7099 251.48 82.4399 249.88C80.1899 248.29 77.8099 246.61 74.8199 245.34C71.7999 244.06 68.21 243.23 63.51 243.23C63.35 243.23 63.2 243.26 63.05 243.31C62.93 243.28 62.8 243.25 62.67 243.25C57.96 243.25 54.36 244.08 51.34 245.36C48.34 246.63 45.96 248.31 43.71 249.9C41.44 251.5 39.3 253 36.65 254.13C34.02 255.24 30.83 256 26.51 256C25.68 256 25.01 256.67 25.01 257.5C25.01 258.33 25.68 259 26.51 259C31.22 259 34.8099 258.17 37.8199 256.89C40.8099 255.62 43.1999 253.94 45.4399 252.35C47.7099 250.75 49.85 249.25 52.51 248.12C55.14 247.01 58.34 246.25 62.67 246.25C62.83 246.25 62.98 246.22 63.13 246.17C63.25 246.2 63.38 246.23 63.51 246.23C67.84 246.23 71.03 246.99 73.65 248.1C76.31 249.22 78.44 250.73 80.71 252.33C82.96 253.92 85.34 255.6 88.34 256.87C91.36 258.15 94.95 258.98 99.67 258.98C104.39 258.98 107.97 258.15 110.98 256.87C113.97 255.6 116.36 253.92 118.6 252.33C120.87 250.73 123.01 249.23 125.67 248.1C128.3 246.99 131.5 246.23 135.83 246.23C140.16 246.23 143.35 246.99 145.97 248.1C148.63 249.22 150.76 250.73 153.03 252.33C155.28 253.92 157.66 255.6 160.66 256.87C163.68 258.15 167.27 258.98 171.99 258.98C176.71 258.98 180.29 258.15 183.3 256.87C186.29 255.6 188.68 253.92 190.92 252.33C193.19 250.73 195.33 249.23 197.99 248.1C200.62 246.99 203.82 246.23 208.15 246.23C212.48 246.23 215.67 246.99 218.29 248.1C220.95 249.22 223.08 250.73 225.35 252.33C227.6 253.92 229.98 255.6 232.98 256.87C236 258.15 239.59 258.98 244.31 258.98C249.03 258.98 252.61 258.15 255.62 256.87C258.61 255.6 261 253.92 263.24 252.33C265.51 250.73 267.65 249.23 270.31 248.1C272.94 246.99 276.14 246.23 280.47 246.23C281.3 246.23 281.97 245.56 281.97 244.73C281.97 243.9 281.3 243.23 280.47 243.23H280.5Z" fill="#008082"/>
<path d="M280.5 230.86C275.79 230.86 272.19 231.69 269.17 232.97C266.18 234.23 263.79 235.92 261.54 237.51C259.27 239.11 257.13 240.61 254.48 241.74C251.85 242.85 248.66 243.61 244.33 243.61C240 243.61 236.81 242.85 234.18 241.74C231.52 240.61 229.38 239.11 227.11 237.51C224.86 235.92 222.48 234.23 219.48 232.97C218.51 232.55 217.47 232.19 216.36 231.89C216.37 231.8 216.38 231.72 216.38 231.63V219.29H228.09C230.12 219.29 231.78 217.64 231.78 215.6V202.54C231.78 202.44 231.79 202.06 231.66 201.64H231.67L229.14 191.54C228.94 190.74 228.47 190.12 227.86 189.7C227.26 189.28 226.52 189.05 225.78 189.05H216.38V170.63H248.64C251.66 170.63 254.11 168.18 254.11 165.16C254.11 162.89 252.74 160.96 250.81 160.12C250.37 159.87 249.95 159.79 249.71 159.74H249.68C249.68 159.74 249.64 159.74 249.63 159.73L216.38 149.26V124.35C216.38 122.31 214.72 120.66 212.69 120.66H203.69C201.66 120.66 200 122.31 200 124.35V144.06L156.28 130.28C156.28 130.28 156.21 130.26 156.17 130.26C155.31 129.92 154.38 129.73 153.4 129.73C151.53 129.73 149.82 130.41 148.5 131.52C148.44 131.56 148.38 131.6 148.32 131.65L136.43 141.68C136.33 141.77 136.25 141.87 136.17 141.98H135.9V189.05H128.94V161.22C128.94 159.26 127.33 157.65 125.37 157.65H84.59C84.39 157.65 84.2 157.67 84.02 157.7V125.43C84.02 123.4 82.36 121.74 80.33 121.74H71.33C69.3 121.74 67.64 123.4 67.64 125.43V189.05H58.86C57.36 189.05 55.93 189.98 55.52 191.5V191.52L55.51 191.54L53 201.65H53.01C52.93 201.95 52.89 202.26 52.89 202.54V215.6C52.89 217.65 54.56 219.29 56.6 219.29H67.64V231.1C66.36 230.95 64.99 230.86 63.51 230.86C63.36 230.86 63.22 230.88 63.09 230.92C62.95 230.88 62.81 230.86 62.67 230.86C57.95 230.86 54.36 231.69 51.34 232.97C48.34 234.23 45.96 235.92 43.71 237.51C41.44 239.11 39.3 240.61 36.64 241.74C34.02 242.85 30.83 243.61 26.5 243.61C25.67 243.61 25 244.28 25 245.11C25 245.94 25.67 246.61 26.5 246.61C31.21 246.61 34.8001 245.78 37.8101 244.5C40.8101 243.23 43.1899 241.54 45.4399 239.96C47.7099 238.36 49.85 236.85 52.51 235.73C55.14 234.62 58.33 233.86 62.67 233.86C62.81 233.86 62.95 233.83 63.09 233.79C63.22 233.83 63.36 233.86 63.51 233.86C67.83 233.86 71.02 234.62 73.65 235.73C76.31 236.85 78.44 238.36 80.72 239.96C82.97 241.54 85.35 243.23 88.35 244.5C91.37 245.78 94.96 246.61 99.67 246.61C104.38 246.61 107.97 245.78 110.99 244.5C113.98 243.23 116.36 241.54 118.61 239.96C120.88 238.36 123.02 236.85 125.68 235.73C128.31 234.62 131.5 233.86 135.84 233.86C140.18 233.86 143.35 234.62 145.98 235.73C148.64 236.85 150.77 238.36 153.05 239.96C155.3 241.54 157.68 243.23 160.68 244.5C163.7 245.78 167.29 246.61 172 246.61C176.71 246.61 180.3 245.78 183.32 244.5C186.31 243.23 188.69 241.54 190.94 239.96C193.21 238.36 195.35 236.85 198.01 235.73C200.64 234.62 203.83 233.86 208.17 233.86C210.34 233.86 212.21 234.05 213.88 234.38C215.54 234.71 217 235.18 218.31 235.73C220.97 236.85 223.1 238.36 225.38 239.96C227.63 241.54 230.01 243.23 233.01 244.5C236.03 245.78 239.62 246.61 244.33 246.61C249.04 246.61 252.63 245.78 255.65 244.5C258.64 243.23 261.02 241.54 263.27 239.96C265.54 238.36 267.68 236.85 270.34 235.73C272.97 234.62 276.17 233.86 280.5 233.86C281.33 233.86 282 233.18 282 232.36C282 231.54 281.33 230.86 280.5 230.86ZM216.38 152.41L239.35 159.64H216.38V152.41ZM203 124.35C203 123.97 203.32 123.66 203.69 123.66H212.69C213.07 123.66 213.38 123.97 213.38 124.35V148.31L203 145V124.35ZM203 148.15L213.38 151.46V159.64H203V148.15ZM248.64 162.64C248.76 162.64 248.87 162.66 248.99 162.68C249.1 162.71 249.21 162.73 249.32 162.73H249.36L249.44 162.79L249.54 162.83C250.45 163.19 251.11 164.09 251.11 165.16C251.11 166.52 250 167.63 248.64 167.63H139.02V162.64H248.64ZM213.38 170.63V189.05H203V170.63H213.38ZM172.6 178.32H154.93V170.63H200V189.05H184.1C183.68 183.06 178.7 178.32 172.6 178.32ZM181.1 189.05H154.93V181.32H172.6C177.04 181.32 180.69 184.72 181.1 189.05ZM160.56 134.77L200 147.2V159.64H154.93V144.8C158.4 144.09 161.02 141.02 161.02 137.34C161.02 136.44 160.85 135.58 160.56 134.77ZM153.4 132.73C155.95 132.73 158.02 134.79 158.02 137.34C158.02 139.89 155.95 141.95 153.4 141.95C150.85 141.95 148.79 139.89 148.79 137.34C148.79 134.79 150.86 132.73 153.4 132.73ZM145.81 137.69C145.88 139.3 146.45 140.78 147.38 141.98H140.73L145.81 137.69ZM138.9 144.98H151.93V159.64H138.9V144.98ZM138.9 170.92H151.93V178.32H151.88V189.05H138.9V170.92ZM84.02 161.22C84.02 160.91 84.28 160.65 84.59 160.65H125.37C125.67 160.65 125.94 160.91 125.94 161.22V189.05H84.02V161.22ZM70.64 125.43C70.64 125.05 70.95 124.74 71.33 124.74H80.33C80.7 124.74 81.02 125.05 81.02 125.43V189.05H70.64V125.43ZM55.89 202.47V202.39L55.91 202.37L58.4 192.29C58.42 192.23 58.53 192.05 58.85 192.05H81.01V192.08H128.93V192.05H135.89V192.08H151.87V192.1H184.13V192.05H225.77C225.93 192.05 226.05 192.1 226.13 192.15C226.2 192.21 226.21 192.25 226.22 192.25L228.74 202.36C228.54 202.26 228.31 202.19 228.06 202.19H56.8101C56.4601 202.19 56.14 202.32 55.88 202.52V202.47H55.89ZM81.02 236.51C79.18 235.24 77.1899 233.97 74.8199 232.97C73.5499 232.43 72.16 231.97 70.64 231.62V219.29H81.02V236.51ZM199.98 231.89C198.86 232.19 197.82 232.55 196.84 232.97C193.84 234.23 191.46 235.92 189.21 237.51C186.94 239.11 184.8 240.61 182.15 241.74C179.52 242.85 176.33 243.61 172 243.61C167.67 243.61 164.48 242.85 161.84 241.74C159.19 240.61 157.05 239.11 154.78 237.51C152.53 235.92 150.15 234.23 147.15 232.97C144.13 231.69 140.55 230.86 135.84 230.86C133.48 230.86 131.4 231.07 129.54 231.44C127.67 231.8 126.02 232.33 124.51 232.97C121.51 234.23 119.13 235.92 116.88 237.51C114.61 239.11 112.47 240.61 109.82 241.74C107.19 242.85 104 243.61 99.67 243.61C95.34 243.61 92.15 242.85 89.51 241.74C87.47 240.87 85.74 239.79 84.02 238.6V219.29H199.98V231.89ZM213.38 231.25C211.8 231 210.08 230.86 208.17 230.86C206.26 230.86 204.55 231 202.98 231.24V219.39H213.38V231.25ZM56.6 216.29C56.19 216.29 55.89 215.97 55.89 215.6V204.86C56.14 205.06 56.4599 205.19 56.8199 205.19H228.07C228.33 205.19 228.57 205.12 228.78 205V215.6C228.78 215.98 228.47 216.29 228.09 216.29H56.6Z" fill="#008082"/>
</svg>
