<svg width="23" height="30" viewBox="0 0 23 30" fill="none" xmlns="http://www.w3.org/2000/svg">
<path d="M11.3527 4.0686C7.92308 4.0686 5.13184 6.85985 5.13184 10.2894C5.13184 13.719 7.92308 16.5103 11.3527 16.5103C14.7823 16.5103 17.5735 13.719 17.5735 10.2894C17.5735 6.85985 14.7823 4.0686 11.3527 4.0686ZM11.3527 15.146C8.67409 15.146 6.49617 12.968 6.49617 10.2894C6.49617 7.61085 8.67409 5.43293 11.3527 5.43293C14.0313 5.43293 16.2092 7.61085 16.2092 10.2894C16.2092 12.968 14.0313 15.146 11.3527 15.146Z" fill="#008081"/>
<path d="M11.1775 0.000244141C5.01923 0.100378 0 5.19471 0 11.353C0 18.0995 6.34601 24.7459 10.1261 28.1004L10.2137 28.1755C10.4265 28.3633 10.6393 28.5385 10.8145 28.7012L11.2526 29.0767L11.6907 28.7012C14.945 25.9225 22.5052 18.6628 22.5052 11.353C22.5052 5.19471 17.4484 0.100378 11.165 0.000244141H11.1775ZM11.2526 27.2868C11.19 27.2242 11.1149 27.1617 11.0398 27.0991L10.9647 27.0365C8.02326 24.4205 1.3393 17.749 1.3393 11.353C1.3393 5.92068 5.7452 1.43967 11.1775 1.35206C16.5973 1.43967 21.1408 5.92068 21.1408 11.353C21.1408 17.7991 14.5445 24.3955 11.2401 27.2868H11.2526Z" fill="#008081"/>
</svg>
