<svg width="81" height="78" viewBox="0 0 81 78" fill="none" xmlns="http://www.w3.org/2000/svg">
<path d="M80.3022 70.1271V76.4932C80.3022 77.3254 79.629 78 78.7985 78H57.2271V76.3803C63.0403 72.9832 69.6782 70.0528 78.5642 68.6381C79.4747 68.4925 80.3022 69.2028 80.3022 70.1301V70.1271Z" fill="#3CD1C2"/>
<path d="M80.3022 31.7728V36.2011C80.3022 37.0303 79.6378 37.702 78.8103 37.7169C63.9182 37.9843 55.1805 42.2611 47.1605 47.3968C45.5856 48.4043 44.0373 49.4504 42.4773 50.4996C41.7862 50.9632 41.0951 51.4328 40.3981 51.8905C38.9389 52.8593 37.4677 53.8253 35.9462 54.7644C33.6061 56.2088 31.1473 57.5968 28.472 58.8391C26.5352 59.7515 24.4857 60.5866 22.285 61.3237C18.189 62.6878 13.571 63.7162 8.16998 64.2184C6.2332 64.3997 4.19855 64.5097 2.04823 64.5454C1.197 64.5602 0.5 63.8796 0.5 63.0267V58.5983C0.5 57.7721 1.16438 57.0975 1.98891 57.0826C4.33499 57.041 6.52683 56.8983 8.58818 56.6695H8.59411C12.788 56.2059 16.4361 55.3796 19.7194 54.2978C23.0294 53.2041 25.9657 51.8548 28.7152 50.348C30.4117 49.4148 32.04 48.4281 33.6417 47.3997C35.2166 46.3922 36.7648 45.352 38.3249 44.3029C39.016 43.8392 39.7041 43.3756 40.4011 42.912C49.818 36.638 60.0773 30.5751 78.7628 30.2571C79.6111 30.2422 80.3051 30.9258 80.3051 31.7758L80.3022 31.7728Z" fill="#3CD1C2"/>
<path d="M23.5811 66.6709V74.5022C18.1386 76.0803 11.7736 77.0552 3.985 77.0552C3.32953 77.0552 2.68591 77.0641 2.05416 77.0789C1.20293 77.0997 0.5 76.4191 0.5 75.5632V71.1349C0.5 70.3116 1.15548 69.634 1.97705 69.6162C2.63549 69.6013 3.30283 69.5954 3.985 69.5954C11.9931 69.5954 18.2661 68.469 23.5811 66.6739V66.6709Z" fill="#3CD1C2"/>
<path d="M80.302 44.3982V48.8325C80.302 49.6319 79.6792 50.2977 78.8813 50.3452C63.2863 51.329 54.8541 57.0115 45.968 62.9912C45.5113 63.3003 45.0516 63.6094 44.5948 63.9185L44.58 63.9304L44.5651 63.9423L44.5503 63.9542L40.5759 66.1445L33.3301 62.2155C36.2723 60.5304 39.0218 58.6818 41.8157 56.7975C51.2237 50.4641 60.9313 43.9316 78.7004 42.8825C79.5694 42.8319 80.305 43.5274 80.305 44.4012L80.302 44.3982Z" fill="#3CD1C2"/>
<path d="M80.3022 57.1834V61.6355C80.3022 62.4082 79.7239 63.0561 78.9586 63.1423C69.7078 64.2033 63.1145 67.0268 57.2271 70.4892V61.9654C63.0077 58.9993 69.7523 56.6187 78.6265 55.6736C79.5222 55.5785 80.3022 56.2859 80.3022 57.1864V57.1834Z" fill="#3CD1C2"/>
<path d="M40.3981 42.909C39.7011 43.3726 39.016 43.8362 38.3219 44.2999C36.7618 45.349 35.2136 46.3892 33.6387 47.3967C25.6187 42.2611 16.878 37.9843 1.98001 37.7168C1.16141 37.7049 0.5 37.0333 0.5 36.21V31.7668C0.5 30.9228 1.19107 30.2422 2.03637 30.2541C20.7219 30.5691 30.9871 36.632 40.4011 42.909H40.3981Z" fill="white"/>
<path d="M28.7152 50.3483C25.9657 51.8581 23.0265 53.2074 19.7194 54.2981C14.8167 52.2652 9.13391 50.8 1.91773 50.3483C1.11989 50.2977 0.5 49.638 0.5 48.8385V44.3894C0.5 43.5185 1.23556 42.829 2.10162 42.8796C13.6778 43.5631 21.8342 46.5768 28.7152 50.3453V50.3483Z" fill="white"/>
<path d="M30.563 17.1338H1.57368C0.980486 17.1338 0.5 17.6153 0.5 18.2097V23.6277C0.5 24.2221 0.980486 24.7035 1.57368 24.7035H4.52184V34.4102H8.96782V24.7035H23.2638V38.0747H27.7097V24.7035H30.563C31.1562 24.7035 31.6367 24.2221 31.6367 23.6277V18.2097C31.6367 17.6153 31.1562 17.1338 30.563 17.1338Z" fill="white"/>
<path d="M12.1029 6.07779C11.9368 5.44474 11.3673 5.00488 10.7118 5.00488H6.74634C6.06416 5.00488 5.47394 5.48635 5.3375 6.15803L4.01172 14.126H13.8409L12.0999 6.07779H12.1029Z" fill="white"/>
<path d="M28.7152 10.7464C28.7152 10.152 28.2348 9.67054 27.6416 9.67054H25.5565L28.6322 2.31774C28.653 2.27316 28.6678 2.22561 28.6767 2.17806C28.7034 2.08593 28.7152 1.98785 28.7152 1.8868C28.7152 1.2389 28.1903 0.71582 27.5467 0.71582C26.903 0.71582 26.648 1.13785 26.648 1.13785L20.8347 9.67351H17.9785C17.3853 9.67351 16.9048 10.155 16.9048 10.7494V14.1286H28.7152V10.7494V10.7464Z" fill="white"/>
</svg>
