<svg width="258" height="75" viewBox="0 0 258 75" fill="none" xmlns="http://www.w3.org/2000/svg">
<path fill-rule="evenodd" clip-rule="evenodd" d="M76.6248 29.7644V34.0084C76.6248 34.8014 75.9878 35.4486 75.1922 35.4614C60.892 35.7172 52.5038 39.8154 44.8012 44.7373C43.3984 45.6322 42.0176 46.56 40.6303 47.4923L40.3065 47.7099C40.1402 47.8212 39.974 47.9327 39.8079 48.0441C39.3095 48.3784 38.8112 48.7127 38.3086 49.0427C36.9092 49.9713 35.4946 50.8974 34.0339 51.7953C31.7852 53.1793 29.4266 54.507 26.8556 55.6991C24.9959 56.5714 23.0286 57.3747 20.9156 58.0807C16.9811 59.3879 12.5478 60.3754 7.3624 60.8538C5.50262 61.0277 3.54818 61.1326 1.48629 61.1684C0.67024 61.1838 0 60.5289 0 59.7128V55.4688C0 54.6758 0.636984 54.0286 1.43002 54.0158C3.68376 53.9749 5.78657 53.8393 7.76659 53.6193H7.77171C11.7983 53.1742 15.303 52.3837 18.4546 51.3451C21.6319 50.2988 24.451 49.0043 27.0935 47.559C28.7231 46.6662 30.2861 45.7197 31.8236 44.7348C33.3355 43.7703 34.8218 42.7727 36.3183 41.7673C36.5183 41.6335 36.7175 41.4999 36.9166 41.3664C37.3799 41.0558 37.8424 40.7458 38.3111 40.4345C47.3517 34.4228 57.2032 28.6132 75.1436 28.3088C75.9571 28.296 76.6248 28.9509 76.6248 29.7644ZM76.625 66.5147V72.6159C76.625 73.414 75.9778 74.0587 75.1822 74.0587H54.4688V72.5059C60.0507 69.2519 66.4231 66.443 74.9546 65.0872C75.8294 64.9491 76.625 65.6295 76.625 66.5147ZM22.1614 70.7103V63.2071C17.0579 64.9288 11.0334 66.0058 3.34608 66.0058C2.69119 66.0058 2.04909 66.0109 1.41722 66.0262C0.629309 66.0442 0 66.6914 0 67.4818V71.7258C0 72.5445 0.672798 73.1968 1.49141 73.1814C2.0977 73.1661 2.71677 73.1584 3.34608 73.1584C10.8262 73.1584 16.9351 72.2221 22.1614 70.7103ZM76.625 41.8615V46.1107C76.625 46.8781 76.0264 47.5125 75.2615 47.5611C60.3017 48.5043 52.2062 53.9393 43.683 59.6615L43.6605 59.6766L43.2821 59.9321L43.2811 59.9328C42.9685 60.144 42.6564 60.3548 42.343 60.5643L42.3277 60.5745L42.3123 60.5848L42.297 60.595L38.4802 62.6953L31.522 58.9296C34.3462 57.3154 36.9888 55.5426 39.6697 53.7391L39.6772 53.7341C48.7103 47.6677 58.0267 41.411 75.085 40.4034C75.919 40.3548 76.625 41.0199 76.625 41.8564V41.8615ZM76.625 58.3776V54.1132V54.1106C76.625 53.2485 75.8755 52.5706 75.0159 52.6627C66.4947 53.5683 60.02 55.8502 54.4688 58.6923V66.8605C60.1197 63.5451 66.4487 60.8411 75.3332 59.823C76.0674 59.7386 76.625 59.1169 76.625 58.3776Z" fill="#3CD1C2"/>
<path fill-rule="evenodd" clip-rule="evenodd" d="M26.06 8.58521C26.6305 8.58521 27.0909 9.04568 27.0909 9.61615V12.8522H15.7506V9.61359C15.7506 9.04312 16.2111 8.58265 16.7815 8.58265H19.5239L25.1058 0.40419C25.1058 0.40419 25.3488 0 25.9679 0C26.587 0 27.0909 0.501401 27.0909 1.12304C27.0909 1.22025 27.0781 1.3149 27.0526 1.40443C27.0423 1.44792 27.027 1.49397 27.0091 1.53746L24.057 8.58521H26.06ZM11.1407 5.14208C10.9821 4.5358 10.4321 4.1137 9.80536 4.1137H5.99624C5.3388 4.1137 4.77344 4.57673 4.64297 5.21883L3.36901 12.855H12.8112L11.1407 5.14208ZM1.03094 15.7355H28.8638L28.8664 15.7381C29.4368 15.7381 29.8973 16.1986 29.8973 16.769V21.9595C29.8973 22.53 29.4368 22.9905 28.8664 22.9905H26.1266V33.4399C30.6724 35.4848 34.5599 37.9428 38.3066 40.436C37.8384 40.7469 37.3764 41.0567 36.9137 41.3669C36.7147 41.5003 36.5156 41.6338 36.3157 41.7675C34.8192 42.7729 33.3329 43.7705 31.821 44.735C24.1184 39.8131 15.7276 35.7149 1.4249 35.4591C0.634425 35.4488 0 34.8042 0 34.0162V29.7595C0 28.9485 0.665123 28.2962 1.4735 28.3115C2.28631 28.3252 3.08253 28.3502 3.86283 28.386V22.9905H1.03094C0.46047 22.9905 0 22.5275 0 21.957V16.7665C0 16.1986 0.46047 15.7355 1.03094 15.7355ZM38.3066 40.436L38.3086 40.4347V40.4372L38.3066 40.436ZM8.13241 28.7026C13.3976 29.2493 17.8853 30.3207 21.857 31.7259V22.9905H8.13241V28.7026ZM27.091 47.5616C24.451 49.0069 21.6293 50.2988 18.4521 51.3477C13.745 49.3983 8.28846 47.9965 1.35839 47.5616C0.596053 47.5155 0 46.8811 0 46.1188V41.8569C0 41.0229 0.706054 40.3603 1.53746 40.4089C12.6527 41.0638 20.4832 43.952 27.091 47.5616Z" fill="#008081"/>
<path d="M107.826 52.1064L107.78 36.2827H105.385L99.1974 46.7522L92.9083 36.2827H90.5127V52.1064H93.2926V41.7595L98.491 50.2967H99.802L105.002 41.6224L105.023 52.1064H107.826Z" fill="#008081"/>
<path d="M127.922 47.4486C128.344 46.4534 128.553 45.3688 128.553 44.1929C128.553 43.0169 128.341 41.9365 127.922 40.9496C127.5 39.9627 126.906 39.1046 126.135 38.3733C125.366 37.6419 124.467 37.0726 123.434 36.6675C122.401 36.2623 121.267 36.0566 120.033 36.0566C118.799 36.0566 117.683 36.2603 116.642 36.6675C115.601 37.0747 114.697 37.644 113.931 38.3733C113.162 39.1046 112.566 39.9627 112.144 40.9496C111.722 41.9365 111.512 43.0169 111.512 44.1929C111.512 45.3688 111.722 46.4492 112.144 47.4361C112.566 48.423 113.16 49.2832 113.931 50.0125C114.699 50.7438 115.603 51.3131 116.642 51.7183C117.681 52.1234 118.819 52.3291 120.056 52.3291C121.292 52.3291 122.403 52.1255 123.436 51.7183C124.469 51.311 125.368 50.7459 126.137 50.0229C126.906 49.2998 127.5 48.4397 127.924 47.4465L127.922 47.4486ZM125.175 46.4201C124.897 47.0912 124.508 47.6792 124.012 48.1841C123.515 48.689 122.927 49.0775 122.248 49.3476C121.568 49.6198 120.831 49.7548 120.033 49.7548C119.235 49.7548 118.495 49.6198 117.818 49.3476C117.141 49.0754 116.553 48.689 116.054 48.1841C115.557 47.6792 115.169 47.0871 114.891 46.4098C114.612 45.7324 114.473 44.9928 114.473 44.1949C114.473 43.3971 114.612 42.6388 114.891 41.9677C115.169 41.2966 115.562 40.7086 116.066 40.2037C116.571 39.6988 117.159 39.3103 117.83 39.0402C118.502 38.768 119.235 38.633 120.035 38.633C120.835 38.633 121.572 38.768 122.25 39.0402C122.927 39.3124 123.515 39.6988 124.014 40.2037C124.51 40.7086 124.899 41.2966 125.177 41.9677C125.456 42.6388 125.595 43.3805 125.595 44.1949C125.595 45.0094 125.456 45.7511 125.177 46.4222L125.175 46.4201Z" fill="#008081"/>
<path d="M135.2 47.5396H138.771C140.174 47.5396 141.374 47.3132 142.376 46.8623C143.377 46.4094 144.15 45.7632 144.693 44.9176C145.235 44.074 145.507 43.0726 145.507 41.9112C145.507 40.7497 145.235 39.7483 144.693 38.9048C144.15 38.0612 143.377 37.413 142.376 36.96C141.374 36.5071 140.171 36.2827 138.771 36.2827H132.262V52.1043H135.2V47.5376V47.5396ZM141.564 39.5821C142.218 40.1244 142.546 40.9014 142.546 41.9112C142.546 42.9209 142.218 43.6772 141.564 44.2278C140.907 44.7784 139.933 45.0526 138.636 45.0526H135.2V38.7697H138.636C139.933 38.7697 140.907 39.0419 141.564 39.5842V39.5821Z" fill="#008081"/>
<path d="M150.196 50.0374C150.957 50.7687 151.854 51.3339 152.887 51.7328C153.92 52.1317 155.038 52.3312 156.245 52.3312C157.556 52.3312 158.746 52.1047 159.816 51.6538C160.886 51.2009 161.79 50.5464 162.528 49.6883L160.629 47.8808C160.055 48.5145 159.415 48.984 158.707 49.2936C157.998 49.6032 157.229 49.7569 156.4 49.7569C155.571 49.7569 154.815 49.6219 154.13 49.3497C153.444 49.0775 152.848 48.6952 152.343 48.1966C151.838 47.7 151.445 47.112 151.167 46.4326C150.888 45.7553 150.749 45.0094 150.749 44.1949C150.749 43.3805 150.888 42.6346 151.167 41.9573C151.445 41.2799 151.838 40.692 152.343 40.1933C152.848 39.6967 153.442 39.3124 154.13 39.0402C154.815 38.768 155.571 38.633 156.4 38.633C157.229 38.633 157.998 38.7867 158.707 39.0963C159.415 39.4059 160.055 39.8692 160.629 40.4863L162.528 38.7015C161.788 37.8268 160.884 37.1682 159.816 36.7236C158.746 36.279 157.564 36.0566 156.267 36.0566C155.048 36.0566 153.924 36.2561 152.9 36.655C151.875 37.0539 150.978 37.6191 150.209 38.3504C149.44 39.0818 148.846 39.944 148.424 40.9392C148.002 41.9344 147.791 43.019 147.791 44.1949C147.791 45.3709 148.002 46.4555 148.424 47.4507C148.846 48.4459 149.438 49.3081 150.199 50.0395L150.196 50.0374Z" fill="#008081"/>
<path d="M179.298 36.2827H176.18L171.644 42.9064H168.607V36.2827H165.714V52.1064H168.607V45.437H171.546L176.18 52.1064H179.502L173.888 43.9369L179.298 36.2827Z" fill="#008081"/>
<path d="M193.223 40.8931V52.1064H196.115V36.2827H193.381L184.881 47.5168V36.2827H181.989V52.1064H184.723L193.223 40.8931Z" fill="#008081"/>
<path d="M212.866 49.6422H203.936V45.2791H211.578V42.8607H203.936V38.7469H212.55V36.2827H200.998V52.1064H212.866V49.6422Z" fill="#008081"/>
<path d="M90.521 74.0213H93.4131V60.6846H101.618V74.0213H104.512V58.1997H90.521V74.0213Z" fill="#008081"/>
<path d="M110.909 64.7544C110.849 66.2317 110.735 67.4741 110.57 68.4839C110.404 69.4937 110.134 70.2582 109.756 70.7777C109.38 71.2971 108.875 71.5568 108.241 71.5568C108 71.5568 107.774 71.5277 107.564 71.4654L107.36 74.0189C107.662 74.0791 107.94 74.1311 108.196 74.1768C108.451 74.2225 108.709 74.2453 108.964 74.2453C109.822 74.2453 110.531 74.0334 111.09 73.6116C111.649 73.1899 112.095 72.5749 112.434 71.7687C112.773 70.9626 113.026 69.9653 113.19 68.7748C113.357 67.5843 113.463 66.2047 113.506 64.6381L113.639 60.6822H119.881V74.0189H122.775V58.1973H111.133L110.907 64.7524L110.909 64.7544Z" fill="#008081"/>
<path d="M132.79 58.1997L125.669 74.0213H128.699L130.265 70.3604H138.179L139.752 74.0213H142.827L135.684 58.1997H132.79ZM131.252 68.0542L134.215 61.1292L137.188 68.0542H131.25H131.252Z" fill="#008081"/>
<path d="M143.008 60.6846H148.229V74.0213H151.144V60.6846H156.388V58.1997H143.008V60.6846Z" fill="#008081"/>
<path d="M172.978 59.961C171.821 59.5081 170.454 59.2463 168.887 59.1715V57.5654H166.176V59.1756C164.622 59.2546 163.267 59.5143 162.118 59.961C160.724 60.5033 159.658 61.2866 158.92 62.3109C158.183 63.3352 157.813 64.5942 157.813 66.086C157.813 67.5778 158.183 68.7953 158.92 69.8279C159.658 70.8606 160.724 71.648 162.118 72.1903C163.267 72.637 164.622 72.8967 166.176 72.9756V74.6544H168.887V72.986C170.487 72.9175 171.871 72.6557 173.034 72.1924C174.397 71.6501 175.438 70.8585 176.153 69.8196C176.867 68.7808 177.227 67.5363 177.227 66.0902C177.227 64.6441 176.865 63.358 176.142 62.3275C175.419 61.2949 174.364 60.5074 172.978 59.9652V59.961ZM163.801 70.2123C162.791 69.8737 162.018 69.3605 161.484 68.6748C160.948 67.9892 160.682 67.1269 160.682 66.086C160.682 65.0451 160.934 64.1829 161.439 63.4972C161.943 62.8116 162.704 62.2984 163.722 61.9597C164.424 61.725 165.245 61.5733 166.174 61.5026V70.6673C165.282 70.5946 164.489 70.4429 163.801 70.2123ZM173.645 68.6291C173.14 69.3148 172.394 69.8321 171.407 70.177C170.693 70.4284 169.851 70.5905 168.887 70.6673V61.4902C169.843 61.5587 170.68 61.7187 171.397 61.9701C172.376 62.3171 173.121 62.8282 173.635 63.5076C174.148 64.187 174.403 65.0368 174.403 66.0611C174.403 67.0854 174.15 67.9414 173.647 68.627L173.645 68.6291Z" fill="#008081"/>
<path d="M194.204 60.2898C193.435 59.5584 192.535 58.9891 191.503 58.584C190.47 58.1768 189.336 57.9731 188.102 57.9731C186.868 57.9731 185.752 58.1768 184.711 58.584C183.672 58.9912 182.766 59.5605 181.999 60.2898C181.231 61.0211 180.634 61.8792 180.215 62.8661C179.793 63.853 179.581 64.9334 179.581 66.1094C179.581 67.2853 179.791 68.3657 180.215 69.3526C180.637 70.3395 181.231 71.1997 181.999 71.929C182.768 72.6603 183.672 73.2296 184.711 73.6348C185.752 74.042 186.888 74.2456 188.125 74.2456C189.361 74.2456 190.472 74.042 191.505 73.6348C192.538 73.2275 193.437 72.6624 194.206 71.9394C194.975 71.2163 195.569 70.3562 195.991 69.363C196.412 68.3678 196.624 67.2833 196.624 66.1073C196.624 64.9313 196.412 63.8509 195.991 62.864C195.569 61.8771 194.975 61.019 194.206 60.2877L194.204 60.2898ZM193.244 68.3367C192.966 69.0077 192.577 69.5957 192.08 70.1006C191.584 70.6055 190.996 70.994 190.316 71.2641C189.637 71.5342 188.899 71.6713 188.102 71.6713C187.304 71.6713 186.564 71.5363 185.887 71.2641C185.21 70.9919 184.622 70.6055 184.123 70.1006C183.626 69.5957 183.238 69.0036 182.959 68.3263C182.681 67.6489 182.542 66.9093 182.542 66.1114C182.542 65.3136 182.681 64.5553 182.959 63.8842C183.238 63.2131 183.63 62.6251 184.135 62.1202C184.64 61.6153 185.228 61.2268 185.899 60.9567C186.57 60.6845 187.304 60.5495 188.104 60.5495C188.904 60.5495 189.641 60.6845 190.319 60.9567C190.996 61.2289 191.584 61.6153 192.083 62.1202C192.579 62.6251 192.968 63.2131 193.246 63.8842C193.524 64.5553 193.664 65.297 193.664 66.1114C193.664 66.9259 193.524 67.6676 193.246 68.3387L193.244 68.3367Z" fill="#008081"/>
<path d="M210.445 58.877C209.444 58.4241 208.241 58.1997 206.84 58.1997H200.331V74.0213H203.269V69.4545H206.84C208.243 69.4545 209.444 69.2281 210.445 68.7772C211.446 68.3243 212.219 67.6781 212.762 66.8325C213.304 65.989 213.576 64.9875 213.576 63.8261C213.576 62.6647 213.304 61.6632 212.762 60.8197C212.219 59.9761 211.446 59.3279 210.445 58.875V58.877ZM209.631 66.1448C208.976 66.6954 208 66.9696 206.703 66.9696H203.267V60.6867H206.703C208 60.6867 208.974 60.9589 209.631 61.5012C210.285 62.0434 210.613 62.8205 210.613 63.8302C210.613 64.84 210.285 65.5963 209.631 66.1469V66.1448Z" fill="#008081"/>
<path d="M231.704 58.1997L225.517 68.6692L219.226 58.1997H216.83V74.0213H219.61V63.6744L224.81 72.2137H226.121L231.322 63.5394L231.343 74.0213H234.146L234.1 58.1997H231.704Z" fill="#008081"/>
<path d="M250.69 64.8213C249.666 63.9778 248.211 63.556 246.327 63.556H241.941V58.1997H239.047V74.0213H245.851C247.854 74.0213 249.418 73.5663 250.542 72.6542C251.664 71.7421 252.225 70.3978 252.225 68.6193C252.225 66.8408 251.712 65.6669 250.688 64.8213H250.69ZM248.351 70.9692C247.725 71.4969 246.848 71.7608 245.716 71.7608H241.941V65.7937H245.716C246.861 65.7937 247.742 66.0243 248.361 66.4835C248.978 66.9426 249.288 67.6698 249.288 68.665C249.288 69.6602 248.974 70.4435 248.351 70.9713V70.9692Z" fill="#008081"/>
<path d="M257.405 58.1997H254.511V74.0213H257.405V58.1997Z" fill="#008081"/>
</svg>
