<svg width="307" height="264" viewBox="0 0 307 264" fill="none" xmlns="http://www.w3.org/2000/svg">
<path d="M107.37 231.93C102.63 231.93 98.78 235.77 98.78 240.52V240.54C98.78 245.28 102.62 249.13 107.37 249.13H215.91C220.65 249.13 224.5 245.29 224.5 240.54V240.52C224.5 235.78 220.66 231.93 215.91 231.93H107.37ZM112.98 240.54C112.98 243.63 110.48 246.13 107.39 246.13C104.3 246.13 101.8 243.63 101.8 240.54V240.52C101.8 237.43 104.3 234.93 107.39 234.93C110.48 234.93 112.98 237.43 112.98 240.52V240.54ZM209.37 246.13H113.9C115.19 244.63 115.97 242.68 115.97 240.54V240.52C115.97 238.38 115.19 236.44 113.9 234.93H209.37C208.08 236.43 207.3 238.38 207.3 240.52V240.54C207.3 242.68 208.08 244.62 209.37 246.13ZM221.47 240.52V240.54C221.47 243.63 218.97 246.13 215.88 246.13C212.79 246.13 210.29 243.63 210.29 240.54V240.52C210.29 237.43 212.79 234.93 215.88 234.93C218.97 234.93 221.47 237.43 221.47 240.52Z" fill="#008082"/>
<path d="M212.61 167.57C211.78 167.57 211.11 168.24 211.11 169.07V175.82C211.11 176.07 210.89 176.29 210.64 176.29H203.38C202.55 176.29 201.88 176.96 201.88 177.79C201.88 178.62 202.55 179.29 203.38 179.29H210.64C212.55 179.29 214.11 177.73 214.11 175.82V169.07C214.11 168.24 213.44 167.57 212.61 167.57Z" fill="#008082"/>
<path d="M125.04 205.04C125.87 205.04 126.54 204.37 126.54 203.54V192.78C126.54 191.95 125.87 191.28 125.04 191.28C124.21 191.28 123.54 191.95 123.54 192.78V203.54C123.54 204.37 124.21 205.04 125.04 205.04Z" fill="#008082"/>
<path d="M117.53 205.04C118.36 205.04 119.03 204.37 119.03 203.54V192.78C119.03 191.95 118.36 191.28 117.53 191.28C116.7 191.28 116.03 191.95 116.03 192.78V203.54C116.03 204.37 116.7 205.04 117.53 205.04Z" fill="#008082"/>
<path d="M132.54 205.04C133.37 205.04 134.04 204.37 134.04 203.54V192.78C134.04 191.95 133.37 191.28 132.54 191.28C131.71 191.28 131.04 191.95 131.04 192.78V203.54C131.04 204.37 131.71 205.04 132.54 205.04Z" fill="#008082"/>
<path d="M282 157.2C282 155.24 280.41 153.66 278.46 153.66H254.17C252.78 153.66 251.59 154.47 251.01 155.63C250.92 155.69 250.83 155.73 250.76 155.8L223.67 182.91V140.45C223.67 138.57 222.16 137.06 220.27 137.06H178.3C176.63 137.06 175.15 138.27 174.92 139.98L170.03 174.75H153.16V166.24H155.61V161.95C155.61 157.38 151.89 153.66 147.31 153.66C142.73 153.66 139.01 157.38 139.01 161.95V166.24H141.44V174.75H134.28V156.86C134.28 156.03 133.61 155.36 132.78 155.36C131.95 155.36 131.28 156.03 131.28 156.86V174.75H123.22C112.32 174.75 103.51 183.59 103.51 194.46V221.34C103.51 221.66 103.57 221.97 103.65 222.27C98.4299 223.36 94.0199 226.64 91.4099 231.11H73.5701V203.83C73.5701 200.16 69.81 197.76 66.48 199.18L54.25 204.47C53.31 204.86 52.54 205.52 52.02 206.34C51.48 207.15 51.1899 208.11 51.1899 209.11V220.43C51.1899 232.09 41.7401 241.53 30.0801 241.53C27.2801 241.53 25 243.81 25 246.61V253.51C25 256.31 27.2801 258.59 30.0801 258.59H68.49C71.29 258.59 73.5701 256.31 73.5701 253.51V249.27H91.1101C94.2501 255.06 100.38 259 107.43 259H215.68C225.93 259 234.24 250.69 234.24 240.44C234.24 232.82 229.64 226.28 223.08 223.42C223.49 222.84 223.74 222.13 223.74 221.36V204.09L256.18 171.65H262.28C262.26 171.81 262.23 171.97 262.23 172.14V188.33C262.23 193 258.46 196.78 253.79 196.78H249.46C247.38 196.78 245.7 198.46 245.7 200.54V205.08C245.7 207.07 247.32 208.64 249.27 208.64H270.55C276.88 208.64 282 203.53 282 197.2V168.6H281.95C281.97 168.44 282 168.27 282 168.1V157.2ZM70.5701 253.51C70.5701 254.65 69.63 255.59 68.49 255.59H30.0801C28.9401 255.59 28 254.65 28 253.51V246.61C28 245.47 28.9401 244.53 30.0801 244.53C43.4001 244.53 54.1899 233.75 54.1899 220.43V209.11C54.1899 208.29 54.6699 207.54 55.4299 207.23L55.4399 207.22L67.6699 201.94C69.0499 201.34 70.5701 202.35 70.5701 203.83V253.51ZM89.8301 246.27H73.5701V234.11H90.01C89.29 236.09 88.8799 238.21 88.8799 240.44C88.8799 242.48 89.2201 244.43 89.8301 246.27ZM172.83 176.43L173.07 174.75H173.06L173.66 170.45L177.89 140.4V140.38C177.91 140.22 178.06 140.06 178.3 140.06H220.27C220.5 140.06 220.67 140.22 220.67 140.45V183.57C220.67 184.48 219.95 185.2 219.05 185.2H173.45C172.59 185.2 171.89 184.53 171.83 183.69C171.82 183.57 171.82 183.45 171.84 183.33L172.82 176.46V176.43H172.83ZM142.01 161.95C142.01 159.04 144.39 156.66 147.31 156.66C150.23 156.66 152.61 159.04 152.61 161.95V163.24H142.01V161.95ZM150.16 166.24V174.75H144.44V166.24H150.16ZM106.51 194.46C106.51 185.24 113.98 177.75 123.22 177.75H169.61L168.87 182.91C168.84 183.09 168.83 183.26 168.82 183.43C168.75 186.01 170.81 188.2 173.45 188.2H219.05C219.62 188.2 220.16 188.08 220.67 187.89V202.04H154.41V221.88H107.05C106.75 221.88 106.51 221.64 106.51 221.34V194.46ZM198.6 210.09C197.77 210.09 197.1 210.76 197.1 211.59V221.88H192.61V211.59C192.61 210.76 191.94 210.09 191.11 210.09C190.28 210.09 189.61 210.76 189.61 211.59V221.88H185.09V211.59C185.09 210.76 184.42 210.09 183.59 210.09C182.76 210.09 182.09 210.76 182.09 211.59V221.88H157.41V205.04H220.67V221.34C220.67 221.64 220.43 221.88 220.13 221.88H200.1V211.59C200.1 210.76 199.43 210.09 198.6 210.09ZM231.24 240.44C231.24 249.03 224.28 256 215.68 256H107.43C98.8399 256 91.8799 249.03 91.8799 240.44C91.8799 231.85 98.8399 224.88 107.43 224.88H154.41V224.91H216.15C224.53 225.16 231.24 232.01 231.24 240.44ZM223.67 199.92V187.15L250.63 160.17V168.1C250.63 169.42 251.35 170.56 252.42 171.17L223.67 199.92ZM279 197.2C279 201.87 275.23 205.64 270.55 205.64H249.27C248.96 205.64 248.7 205.39 248.7 205.08V200.54C248.7 200.11 249.04 199.78 249.46 199.78H253.79C260.12 199.78 265.23 194.66 265.23 188.33V172.14C265.23 171.92 265.36 171.73 265.55 171.65H278.46C278.62 171.65 278.78 171.62 278.94 171.6H279V197.2ZM279 168.1C279 168.33 278.87 168.51 278.68 168.6H265.77C265.61 168.6 265.45 168.62 265.29 168.65H255.71C255.63 168.64 255.55 168.64 255.46 168.65H254.17C253.87 168.65 253.63 168.4 253.63 168.1V157.2C253.63 156.9 253.87 156.66 254.17 156.66H278.46C278.76 156.66 279 156.9 279 157.2V168.1Z" fill="#008082"/>
<path d="M214.09 148.67V159.58C214.09 160.4 213.41 161.08 212.59 161.08C211.77 161.08 211.09 160.4 211.09 159.58V148.97H185.21L182.05 171.39L181.42 175.71C181.38 176.02 181.61 176.26 181.88 176.26H191.73C192.56 176.26 193.23 176.93 193.23 177.76C193.23 178.59 192.56 179.26 191.73 179.26H181.88C179.76 179.26 178.16 177.39 178.45 175.3L179.08 170.96L181.48 153.96L182.27 148.29C182.46 146.9 183.67 145.97 184.96 145.97H211.38C212.89 145.97 214.09 147.17 214.09 148.67Z" fill="#008082"/>
</svg>
