<svg width="288" height="264" viewBox="0 0 288 264" fill="none" xmlns="http://www.w3.org/2000/svg">
<path d="M71.35 235.98H71.34C69.87 234.53 67.85 233.63 65.63 233.63C64.52 233.63 63.46 233.86 62.49 234.26C61.52 234.66 60.65 235.25 59.92 235.97C58.44 237.44 57.54 239.46 57.54 241.7C57.54 246.16 61.19 249.75 65.64 249.75C66.75 249.75 67.81 249.52 68.78 249.12C69.75 248.72 70.62 248.13 71.35 247.41H71.36V247.39C72.8 245.93 73.71 243.93 73.71 241.69C73.71 239.45 72.8 237.44 71.36 235.97L71.35 235.98ZM69.23 245.29C68.76 245.74 68.21 246.11 67.61 246.37C67 246.63 66.33 246.77 65.63 246.77C62.81 246.77 60.53 244.5 60.53 241.72C60.53 240.32 61.09 239.05 62.02 238.12C62.49 237.66 63.04 237.29 63.65 237.04C64.26 236.78 64.93 236.64 65.63 236.64C67.02 236.64 68.29 237.2 69.23 238.11C70.14 239.04 70.71 240.31 70.71 241.71C70.71 243.11 70.15 244.35 69.23 245.29Z" fill="#008082"/>
<path d="M199.49 233.63C198.37 233.63 197.31 233.86 196.34 234.26C195.38 234.67 194.51 235.25 193.77 235.97H193.76V235.99C192.32 237.46 191.41 239.47 191.41 241.71C191.41 246.17 195.03 249.76 199.49 249.76C200.61 249.76 201.67 249.54 202.64 249.13C203.61 248.72 204.48 248.14 205.21 247.41C206.68 245.94 207.59 243.95 207.59 241.7C207.59 239.45 206.68 237.44 205.21 235.97C203.75 234.52 201.73 233.62 199.49 233.62V233.63ZM203.09 245.29C202.64 245.74 202.09 246.11 201.48 246.37C200.87 246.63 200.2 246.77 199.49 246.77C196.68 246.77 194.41 244.5 194.41 241.72C194.41 240.32 194.97 239.05 195.89 238.12C196.36 237.66 196.9 237.3 197.51 237.04C198.12 236.78 198.79 236.64 199.49 236.64C200.91 236.64 202.18 237.21 203.09 238.11C204.02 239.04 204.59 240.31 204.59 241.71C204.59 243.11 204.03 244.36 203.09 245.29Z" fill="#008082"/>
<path d="M259.65 205.92H249.3V197.85H250.75C252.54 197.85 254.12 196.45 254.12 194.55V147.76C254.12 145.88 252.57 144.47 250.75 144.47H138.95C137.16 144.47 135.57 145.87 135.57 147.76V200.94H129.96V197.72H129.99V175.71C129.99 175.64 129.97 175.57 129.96 175.5V172.51C129.96 170.67 128.47 169.15 126.59 169.15H84.47C83.42 169.15 82.42 169.57 81.7 170.37C81.7 170.37 81.6933 170.373 81.68 170.38L81.63 170.43C81.59 170.48 81.52 170.55 81.44 170.64C81.26 170.82 81.01 171.08 80.69 171.41C80.05 172.08 79.13 173.03 78.03 174.18C75.83 176.47 72.89 179.53 69.95 182.6C67.01 185.68 64.07 188.77 61.87 191.12C60.76 192.3 59.84 193.29 59.19 194.01C58.94 194.29 58.73 194.52 58.56 194.72H35.69C34.89 194.72 33.95 194.92 33.24 195.42L33.01 195.58L32.86 195.81L25.56 206.81L25.55 206.83C25.2 207.37 25 208 25 208.69V233.37C25 234.2 25.67 234.87 26.5 234.87C26.57 234.87 26.65 234.86 26.72 234.85H49.68C49.04 236.34 48.59 237.94 48.4 239.6H48.39V239.67C48.29 240.34 48.24 241.02 48.24 241.72V242.07C48.47 251.5 56.19 259 65.62 259H66.02C75.61 258.8 83.23 250.87 83.01 241.29V241.26C82.98 240.77 82.96 240.22 82.89 239.67C82.89 239.66 82.88 239.66 82.88 239.65V239.63C82.69 237.95 82.22 236.35 81.57 234.85H135.57V234.87H183.55C182.91 236.36 182.45 237.94 182.26 239.6C182.26 239.61 182.26 239.63 182.25 239.64V239.67C182.15 240.3 182.1 240.95 182.1 241.61C182.1 241.76 182.1 241.91 182.11 242.07C182.33 251.51 190.08 259 199.48 259H199.88C209.37 258.8 216.89 251.07 216.89 241.66V241.26C216.87 240.77 216.84 240.22 216.77 239.67V239.63C216.57 237.96 216.11 236.36 215.47 234.87H246.84C247.69 234.87 248.33 234.4 248.71 233.9C249.09 233.4 249.3 232.76 249.3 232.1V217.47H259.69C261.52 217.47 263 216.01 263 214.17V209.26C263 207.41 261.5 205.92 259.65 205.92ZM86.11 172.15H104.95V194.72H86.11V172.15ZM64.06 193.17C66.25 190.83 69.18 187.75 72.12 184.67C75.05 181.6 77.99 178.55 80.19 176.26C81.29 175.11 82.21 174.16 82.85 173.49C82.95 173.39 83.02 173.31 83.11 173.22V194.72H62.61C63.04 194.26 63.53 193.74 64.06 193.17ZM65.95 256H65.62C57.8 256 51.42 249.79 51.24 242C51.22 241.32 51.26 240.68 51.36 240.07V240C51.61 237.87 52.32 235.86 53.4 234.15C55.89 230.16 60.27 227.48 65.3 227.36C70.57 227.24 75.24 229.97 77.85 234.14C78.94 235.87 79.66 237.88 79.91 240V240.04C79.96 240.44 79.99 240.86 80.01 241.36C80.19 249.28 73.89 255.84 65.95 256ZM126.96 231.85H79.92C76.7 227.22 71.3 224.22 65.23 224.36C62.34 224.43 59.64 225.2 57.26 226.5C54.89 227.8 52.86 229.64 51.33 231.85H28V208.69C28 208.61 28.02 208.54 28.07 208.45L35.14 197.8C35.14 197.8 35.17 197.79 35.2 197.78C35.34 197.74 35.51 197.72 35.69 197.72H41.57V206.24C41.57 206.44 41.41 206.61 41.2 206.61H34.78C33.95 206.61 33.28 207.28 33.28 208.11C33.28 208.94 33.95 209.61 34.78 209.61H41.2C43.04 209.61 44.57 208.13 44.57 206.24V197.72H126.96V231.85ZM126.96 194.72H107.95V172.15H126.59C126.8 172.15 126.96 172.32 126.96 172.51V194.72ZM135.57 231.85H129.96V203.94H135.57V231.85ZM199 147.47H250.75C250.88 147.47 250.98 147.51 251.04 147.57C251.09 147.62 251.12 147.69 251.12 147.76V194.55C251.12 194.62 251.1 194.68 251.03 194.74C250.97 194.81 250.87 194.85 250.75 194.85H199V147.47ZM138.57 147.76C138.57 147.7 138.6 147.64 138.66 147.57C138.73 147.51 138.83 147.47 138.95 147.47H196V194.85H138.57V147.76ZM138.57 198.12H245.88C246.05 198.12 246.19 198.14 246.3 198.17V205.85C246.19 205.88 246.05 205.9 245.88 205.9H138.57V198.12ZM199.81 256H199.48C191.69 256 185.29 249.79 185.1 242C185.08 241.32 185.12 240.68 185.22 240.07V240.04L185.23 240C185.46 237.96 186.15 236.03 187.17 234.36L187.29 234.16C189.75 230.18 194.13 227.5 199.17 227.38C204.46 227.26 209.12 229.99 211.73 234.16L211.85 234.35C212.87 236.03 213.56 237.96 213.79 240V240.04C213.85 240.44 213.87 240.86 213.89 241.36C214.05 249.28 207.77 255.84 199.81 256ZM213.82 231.87C210.6 227.23 205.2 224.22 199.1 224.36C193.33 224.5 188.25 227.44 185.2 231.87H139.94C139.87 231.86 139.79 231.85 139.72 231.85H138.58V217.47H246.31V231.87H213.82ZM260 214.17C260 214.34 259.87 214.47 259.69 214.47H138.57V208.92H259.65C259.85 208.92 260 209.07 260 209.26V214.17Z" fill="#008082"/>
<path d="M167.46 164.47C166.63 164.47 165.96 165.14 165.96 165.97V177.03C165.96 177.86 166.63 178.53 167.46 178.53C168.29 178.53 168.96 177.86 168.96 177.03V165.97C168.96 165.14 168.29 164.47 167.46 164.47Z" fill="#008082"/>
<path d="M174.42 164.47C173.59 164.47 172.92 165.14 172.92 165.97V177.03C172.92 177.86 173.59 178.53 174.42 178.53C175.25 178.53 175.92 177.86 175.92 177.03V165.97C175.92 165.14 175.25 164.47 174.42 164.47Z" fill="#008082"/>
<path d="M160.5 164.47C159.67 164.47 159 165.14 159 165.97V177.03C159 177.86 159.67 178.53 160.5 178.53C161.33 178.53 162 177.86 162 177.03V165.97C162 165.14 161.33 164.47 160.5 164.47Z" fill="#008082"/>
<path d="M226.46 164.35C225.63 164.35 224.96 165.02 224.96 165.85V176.91C224.96 177.74 225.63 178.41 226.46 178.41C227.29 178.41 227.96 177.74 227.96 176.91V165.85C227.96 165.02 227.29 164.35 226.46 164.35Z" fill="#008082"/>
<path d="M233.44 164.35C232.61 164.35 231.94 165.02 231.94 165.85V176.91C231.94 177.74 232.61 178.41 233.44 178.41C234.27 178.41 234.94 177.74 234.94 176.91V165.85C234.94 165.02 234.27 164.35 233.44 164.35Z" fill="#008082"/>
<path d="M219.5 164.35C218.67 164.35 218 165.02 218 165.85V176.91C218 177.74 218.67 178.41 219.5 178.41C220.33 178.41 221 177.74 221 176.91V165.85C221 165.02 220.33 164.35 219.5 164.35Z" fill="#008082"/>
<path d="M108.16 219.57C108.99 219.57 109.66 218.9 109.66 218.07V208.12C109.66 207.29 108.99 206.62 108.16 206.62C107.33 206.62 106.66 207.29 106.66 208.12V218.07C106.66 218.9 107.33 219.57 108.16 219.57Z" fill="#008082"/>
<path d="M115.15 219.57C115.98 219.57 116.65 218.9 116.65 218.07V208.12C116.65 207.29 115.98 206.62 115.15 206.62C114.32 206.62 113.65 207.29 113.65 208.12V218.07C113.65 218.9 114.32 219.57 115.15 219.57Z" fill="#008082"/>
<path d="M101.21 206.61C100.38 206.61 99.71 207.28 99.71 208.11V218.06C99.71 218.89 100.38 219.56 101.21 219.56C102.04 219.56 102.71 218.89 102.71 218.06V208.11C102.71 207.28 102.04 206.61 101.21 206.61Z" fill="#008082"/>
</svg>
