<svg width="288" height="264" viewBox="0 0 288 264" fill="none" xmlns="http://www.w3.org/2000/svg">
<path d="M220.89 233.635H220.87C216.42 233.635 212.82 237.235 212.82 241.685V241.705C212.82 246.155 216.42 249.755 220.87 249.755H220.89C225.34 249.755 228.94 246.155 228.94 241.705V241.685C228.94 237.235 225.34 233.635 220.89 233.635ZM225.94 241.705C225.94 244.495 223.68 246.755 220.89 246.755H220.87C218.08 246.755 215.82 244.495 215.82 241.705V241.685C215.82 238.895 218.08 236.635 220.87 236.635H220.89C223.68 236.635 225.94 238.895 225.94 241.685V241.705Z" fill="#008082"/>
<path d="M175.94 233.635H175.92C171.47 233.635 167.87 237.235 167.87 241.685V241.705C167.87 246.155 171.47 249.755 175.92 249.755H175.94C180.39 249.755 183.99 246.155 183.99 241.705V241.685C183.99 237.235 180.39 233.635 175.94 233.635ZM180.99 241.705C180.99 244.495 178.73 246.755 175.94 246.755H175.92C173.13 246.755 170.87 244.495 170.87 241.705V241.685C170.87 238.895 173.13 236.635 175.92 236.635H175.94C178.73 236.635 180.99 238.895 180.99 241.685V241.705Z" fill="#008082"/>
<path d="M65.47 233.635H65.45C61 233.635 57.4 237.235 57.4 241.685V241.705C57.4 246.155 61 249.755 65.45 249.755H65.47C69.92 249.755 73.52 246.155 73.52 241.705V241.685C73.52 237.235 69.92 233.635 65.47 233.635ZM70.52 241.705C70.52 244.495 68.26 246.755 65.47 246.755H65.45C62.66 246.755 60.4 244.495 60.4 241.705V241.685C60.4 238.895 62.66 236.635 65.45 236.635H65.47C68.26 236.635 70.52 238.895 70.52 241.685V241.705Z" fill="#008082"/>
<path d="M257.24 210.205H239.79C249.36 205.475 255.94 195.615 255.94 184.215C255.94 168.205 242.96 155.225 226.95 155.225H223.5V148.905H240.94C241.77 148.905 242.44 148.225 242.44 147.405C242.44 146.585 241.77 145.905 240.94 145.905H107.17C106.34 145.905 105.67 146.575 105.67 147.405C105.67 148.235 106.34 148.905 107.17 148.905H125.81V155.225H120.21C104.2 155.225 91.22 168.205 91.22 184.215C91.22 195.615 97.8 205.475 107.36 210.205H74.99V169.405C74.99 167.535 73.47 166.015 71.6 166.015H45.66C44.62 166.015 43.63 166.485 42.95 167.275H42.9399L25.84 187.605H25.83C25.31 188.245 25 189.045 25 189.905V221.755H25.04C25.02 221.885 25 222.015 25 222.145V237.935C25 239.795 26.5 241.345 28.41 241.345H48.15C48.14 241.585 48.13 241.825 48.14 242.075C48.36 251.495 56.04 258.995 65.42 258.995H65.84C75.26 258.795 82.76 251.085 82.76 241.695V241.345H91.38C93.29 241.345 94.79 239.795 94.79 237.935V234.855H136.03V237.935C136.03 239.805 137.56 241.345 139.44 241.345H158.62C158.62 241.585 158.6 241.825 158.61 242.075C158.83 251.495 166.53 258.995 175.9 258.995H176.31C185.73 258.795 193.23 251.085 193.23 241.695V241.345H203.57C203.56 241.575 203.55 241.815 203.55 242.045V242.075C203.77 251.625 211.69 259.215 221.25 258.995C230.71 258.795 238.19 251.075 238.19 241.675V241.345H244.89C246.76 241.345 248.3 239.805 248.3 237.935V222.165C248.3 222.015 248.27 221.875 248.26 221.735H257.24C260.42 221.735 263 219.155 263 215.975C263 212.795 260.42 210.205 257.24 210.205ZM223.5 158.225H226.95C241.3 158.225 252.94 169.865 252.94 184.215C252.94 198.565 241.3 210.205 226.95 210.205H223.5V158.225ZM175.09 148.905H220.5V155.225H175.09V148.905ZM175.09 158.225H220.5V210.205H175.09V158.225ZM128.81 148.905H172.09V155.225H128.81V148.905ZM128.81 158.225H172.09V210.205H128.81V158.225ZM94.22 184.215C94.22 169.865 105.85 158.225 120.21 158.225H125.81V210.205H120.2C105.85 210.205 94.22 198.565 94.22 184.215ZM28 189.905C28 189.785 28.04 189.645 28.15 189.525L43.41 171.385V199.515C43.41 199.735 43.24 199.905 43.02 199.905H28V189.905ZM28 202.905H43.02C44.89 202.905 46.41 201.385 46.41 199.515V169.015H71.6C71.81 169.015 71.99 169.195 71.99 169.405V218.755H28V202.905ZM65.77 255.995C57.85 256.175 51.32 249.905 51.14 242.005C51.12 241.405 51.16 240.845 51.23 240.305L51.26 240.045V240.005C52.05 233.045 57.91 227.535 65.13 227.375C66.06 227.355 66.97 227.425 67.85 227.575C74.04 228.625 78.92 233.665 79.66 240.015V240.075C79.72 240.465 79.74 240.875 79.76 241.375C79.94 249.285 73.67 255.835 65.77 255.995ZM91.79 237.935C91.79 238.155 91.61 238.345 91.38 238.345H82.42C81.1 231.595 75.88 226.305 69.25 224.815C67.9 224.505 66.5001 224.345 65.0601 224.375C60.9301 224.465 57.16 226.005 54.24 228.505C51.32 230.995 49.24 234.445 48.49 238.345H28.41C28.18 238.345 28 238.155 28 237.935V222.145C28 221.925 28.17 221.755 28.39 221.755H91.38C91.61 221.755 91.79 221.935 91.79 222.165V237.935ZM136.03 231.855H94.79V222.165C94.79 222.015 94.77 221.875 94.75 221.735H136.03V231.855ZM190.23 241.365C190.41 249.285 184.14 255.835 176.24 255.995C168.34 256.175 161.79 249.905 161.61 242.005C161.59 241.445 161.63 240.915 161.69 240.405L161.73 240.015C161.79 239.515 161.88 239.035 161.98 238.565C162.89 234.405 165.64 230.895 169.34 228.975C171.22 227.995 173.34 227.425 175.6 227.375C183.06 227.215 189.31 232.765 190.13 240.015V240.045C190.19 240.495 190.23 240.905 190.23 241.325V241.365ZM221.19 255.995H221.18C213.29 256.175 206.74 249.915 206.55 242.015C206.55 241.345 206.58 240.745 206.66 240.195L206.68 240.005C207.36 233.915 211.94 228.935 217.91 227.675C218.76 227.495 219.64 227.395 220.54 227.375C228 227.215 234.25 232.765 235.1 240.015V240.045C235.15 240.445 235.17 240.865 235.2 241.365C235.35 249.295 229.1 255.835 221.19 255.995ZM245.3 237.935C245.3 238.035 245.26 238.135 245.18 238.215C245.09 238.305 244.99 238.345 244.89 238.345H237.86C236.27 230.225 229.03 224.195 220.48 224.375C219.38 224.395 218.32 224.525 217.29 224.745C210.51 226.165 205.22 231.575 203.91 238.345H192.89C191.32 230.225 184.09 224.195 175.53 224.375C174.44 224.395 173.37 224.525 172.34 224.745C165.56 226.165 160.27 231.575 158.96 238.345H139.44C139.34 238.345 139.23 238.305 139.15 238.215C139.07 238.135 139.03 238.035 139.03 237.935V221.755H244.89C244.99 221.755 245.09 221.795 245.18 221.885C245.26 221.965 245.3 222.065 245.3 222.165V237.935ZM257.24 218.735H77.77C76.25 218.735 75.01 217.495 75.01 215.975V213.205H257.24C258.76 213.205 260 214.445 260 215.975C260 217.505 258.76 218.735 257.24 218.735Z" fill="#008082"/>
<path d="M151.94 178.015C151.11 178.015 150.44 178.685 150.44 179.515V189.445C150.44 190.275 151.11 190.945 151.94 190.945C152.77 190.945 153.44 190.275 153.44 189.445V179.515C153.44 178.685 152.77 178.015 151.94 178.015Z" fill="#008082"/>
<path d="M158.87 178.015C158.04 178.015 157.37 178.685 157.37 179.515V189.445C157.37 190.275 158.04 190.945 158.87 190.945C159.7 190.945 160.37 190.275 160.37 189.445V179.515C160.37 178.685 159.7 178.015 158.87 178.015Z" fill="#008082"/>
<path d="M144.99 178.015C144.16 178.015 143.49 178.685 143.49 179.515V189.445C143.49 190.275 144.16 190.945 144.99 190.945C145.82 190.945 146.49 190.275 146.49 189.445V179.515C146.49 178.685 145.82 178.015 144.99 178.015Z" fill="#008082"/>
<path d="M199.1 178.015C198.27 178.015 197.6 178.685 197.6 179.515V189.445C197.6 190.275 198.27 190.945 199.1 190.945C199.93 190.945 200.6 190.275 200.6 189.445V179.515C200.6 178.685 199.93 178.015 199.1 178.015Z" fill="#008082"/>
<path d="M206.03 178.015C205.2 178.015 204.53 178.685 204.53 179.515V189.445C204.53 190.275 205.2 190.945 206.03 190.945C206.86 190.945 207.53 190.275 207.53 189.445V179.515C207.53 178.685 206.86 178.015 206.03 178.015Z" fill="#008082"/>
<path d="M192.17 178.015C191.34 178.015 190.67 178.685 190.67 179.515V189.445C190.67 190.275 191.34 190.945 192.17 190.945C193 190.945 193.67 190.275 193.67 189.445V179.515C193.67 178.685 193 178.015 192.17 178.015Z" fill="#008082"/>
</svg>
