<svg width="260" height="264" viewBox="0 0 260 264" fill="none" xmlns="http://www.w3.org/2000/svg">
<path d="M223.08 223.42C223.49 222.84 223.74 222.13 223.74 221.36V213.06H224.5C228.09 213.06 231 210.14 231 206.56V172.56C231 168.97 228.09 166.06 224.5 166.06H223.67V140.45C223.67 138.57 222.16 137.06 220.27 137.06H178.3C176.63 137.06 175.15 138.27 174.92 139.98L170.03 174.75H153.16V166.24H155.61V161.96C155.61 157.38 151.89 153.66 147.31 153.66C142.73 153.66 139.02 157.38 139.02 161.96V166.24H141.44V174.75H134.28V156.86C134.28 156.03 133.61 155.36 132.78 155.36C131.95 155.36 131.28 156.03 131.28 156.86V174.75H123.22C112.32 174.75 103.51 183.59 103.51 194.46V221.34C103.51 221.67 103.57 221.97 103.65 222.27C98.43 223.36 94.02 226.64 91.41 231.11H73.5699V203.83C73.5699 200.16 69.81 197.76 66.48 199.18L54.25 204.47C53.31 204.86 52.54 205.52 52.02 206.34C51.48 207.15 51.1899 208.11 51.1899 209.11V220.43C51.1899 232.09 41.74 241.53 30.08 241.53C27.28 241.53 25 243.81 25 246.61V253.51C25 256.31 27.28 258.59 30.08 258.59H68.49C71.29 258.59 73.5699 256.31 73.5699 253.51V249.27H91.11C94.25 255.06 100.38 259 107.43 259H215.68C225.93 259 234.24 250.69 234.24 240.44C234.24 232.82 229.64 226.28 223.08 223.42ZM223.67 169.06H224.5C226.43 169.06 228 170.62 228 172.56V206.56C228 208.49 226.43 210.06 224.5 210.06H223.74V202.04H223.67V169.06ZM70.5699 253.51C70.5699 254.65 69.63 255.59 68.49 255.59H30.08C28.94 255.59 28 254.65 28 253.51V246.61C28 245.47 28.94 244.53 30.08 244.53C43.4 244.53 54.1899 233.75 54.1899 220.43V209.11C54.1899 208.29 54.6701 207.54 55.4301 207.23L55.4399 207.22L67.67 201.94C69.05 201.34 70.5699 202.35 70.5699 203.83V253.51ZM89.83 246.27H73.5699V234.11H90.01C89.29 236.09 88.88 238.21 88.88 240.44C88.88 242.48 89.22 244.43 89.83 246.27ZM173.06 174.75L173.66 170.45L177.89 140.4V140.38C177.91 140.22 178.06 140.06 178.3 140.06H220.27C220.5 140.06 220.67 140.22 220.67 140.45V183.57C220.67 184.48 219.95 185.2 219.05 185.2H173.45C172.59 185.2 171.89 184.53 171.83 183.69C171.82 183.57 171.82 183.45 171.84 183.33L172.82 176.46L173.07 174.75H173.06ZM142.02 161.96C142.02 159.04 144.39 156.66 147.31 156.66C150.23 156.66 152.61 159.04 152.61 161.96V163.24H142.02V161.96ZM150.16 166.24V174.75H144.44V166.24H150.16ZM106.51 194.46C106.51 185.24 113.98 177.75 123.22 177.75H169.61L168.87 182.91C168.84 183.09 168.83 183.26 168.82 183.43C168.75 186.01 170.81 188.2 173.45 188.2H219.05C219.62 188.2 220.16 188.08 220.67 187.89V202.04H154.41V221.88H107.05C106.75 221.88 106.51 221.64 106.51 221.34V194.46ZM198.6 210.09C197.78 210.09 197.1 210.76 197.1 211.59V221.88H192.61V211.59C192.61 210.76 191.94 210.09 191.11 210.09C190.28 210.09 189.61 210.76 189.61 211.59V221.88H185.09V211.59C185.09 210.76 184.42 210.09 183.59 210.09C182.76 210.09 182.09 210.76 182.09 211.59V221.88H157.41V205.04H220.67V221.34C220.67 221.64 220.43 221.88 220.13 221.88H200.1V211.59C200.1 210.76 199.43 210.09 198.6 210.09ZM215.68 256H107.43C98.8401 256 91.88 249.03 91.88 240.44C91.88 231.85 98.8401 224.88 107.43 224.88H154.41V224.91H216.15C224.53 225.16 231.24 232.01 231.24 240.44C231.24 248.87 224.28 256 215.68 256Z" fill="#008082"/>
<path d="M215.9 231.93H107.36C102.62 231.93 98.77 235.77 98.77 240.52V240.54C98.77 245.28 102.61 249.13 107.36 249.13H215.9C220.64 249.13 224.49 245.29 224.49 240.54V240.52C224.49 235.78 220.65 231.93 215.9 231.93ZM112.97 240.54C112.97 243.63 110.47 246.13 107.38 246.13C104.29 246.13 101.79 243.63 101.79 240.54V240.52C101.79 237.43 104.29 234.93 107.38 234.93C110.47 234.93 112.97 237.43 112.97 240.52V240.54ZM209.36 246.13H113.89C115.18 244.63 115.96 242.68 115.96 240.54V240.52C115.96 238.38 115.18 236.44 113.89 234.93H209.36C208.07 236.43 207.29 238.38 207.29 240.52V240.54C207.29 242.68 208.07 244.62 209.36 246.13ZM221.46 240.54C221.46 243.63 218.96 246.13 215.87 246.13C212.78 246.13 210.28 243.63 210.28 240.54V240.52C210.28 237.43 212.78 234.93 215.87 234.93C218.96 234.93 221.46 237.43 221.46 240.52V240.54Z" fill="#008082"/>
<path d="M212.61 167.57C211.78 167.57 211.11 168.24 211.11 169.07V175.82C211.11 176.07 210.89 176.29 210.64 176.29H203.38C202.55 176.29 201.88 176.96 201.88 177.79C201.88 178.62 202.55 179.29 203.38 179.29H210.64C212.55 179.29 214.11 177.73 214.11 175.82V169.07C214.11 168.24 213.44 167.57 212.61 167.57Z" fill="#008082"/>
<path d="M181.88 179.27H191.73C192.56 179.27 193.23 178.6 193.23 177.77C193.23 176.94 192.56 176.27 191.73 176.27H181.88C181.6 176.27 181.38 176.03 181.42 175.72L182.04 171.4L182.57 167.62L184.44 154.39L182.95 154.18H182.97L184.44 154.39L185.2 148.98H211.08V159.59C211.08 160.42 211.75 161.09 212.58 161.09C213.41 161.09 214.08 160.42 214.08 159.59V148.68C214.08 147.18 212.88 145.98 211.38 145.98H184.95C183.66 145.98 182.45 146.91 182.27 148.31L181.48 153.98L179.08 170.99L178.46 175.31L179.94 175.52L178.45 175.31C178.16 177.4 179.76 179.28 181.88 179.28V179.27Z" fill="#008082"/>
<path d="M125.04 205.04C125.87 205.04 126.54 204.37 126.54 203.54V192.78C126.54 191.95 125.87 191.28 125.04 191.28C124.21 191.28 123.54 191.95 123.54 192.78V203.54C123.54 204.37 124.21 205.04 125.04 205.04Z" fill="#008082"/>
<path d="M117.52 205.04C118.35 205.04 119.02 204.37 119.02 203.54V192.78C119.02 191.95 118.35 191.28 117.52 191.28C116.69 191.28 116.02 191.95 116.02 192.78V203.54C116.02 204.37 116.69 205.04 117.52 205.04Z" fill="#008082"/>
<path d="M132.54 205.04C133.37 205.04 134.04 204.37 134.04 203.54V192.78C134.04 191.95 133.37 191.28 132.54 191.28C131.71 191.28 131.04 191.95 131.04 192.78V203.54C131.04 204.37 131.71 205.04 132.54 205.04Z" fill="#008082"/>
</svg>
