<svg width="306" height="264" viewBox="0 0 306 264" fill="none" xmlns="http://www.w3.org/2000/svg">
<path d="M93.8808 204.693H111.1C112.136 204.693 112.974 205.531 112.974 206.567V216.555H92.0068V206.567C92.0068 205.531 92.8446 204.693 93.8808 204.693Z" stroke="#008082" stroke-width="3" stroke-miterlimit="10" stroke-linecap="round"/>
<path d="M235.269 197.375V207.252" stroke="#008082" stroke-width="3" stroke-miterlimit="10" stroke-linecap="round"/>
<path d="M242.17 197.375V207.252" stroke="#008082" stroke-width="3" stroke-miterlimit="10" stroke-linecap="round"/>
<path d="M228.391 197.375V207.252" stroke="#008082" stroke-width="3" stroke-miterlimit="10" stroke-linecap="round"/>
<path d="M158.038 197.375V207.252" stroke="#008082" stroke-width="3" stroke-miterlimit="10" stroke-linecap="round"/>
<path d="M164.917 197.375V207.252" stroke="#008082" stroke-width="3" stroke-miterlimit="10" stroke-linecap="round"/>
<path d="M151.137 197.375V207.252" stroke="#008082" stroke-width="3" stroke-miterlimit="10" stroke-linecap="round"/>
<path d="M197.172 215.717V185.954" stroke="#008082" stroke-width="3" stroke-miterlimit="10" stroke-linecap="round"/>
<path d="M53.7772 169.837V201.431C53.7772 202.467 52.9394 203.305 51.9032 203.305H35.7646" stroke="#008082" stroke-width="3" stroke-miterlimit="10" stroke-linecap="round"/>
<path d="M97.3203 235.03H134.822" stroke="#008082" stroke-width="3" stroke-miterlimit="10" stroke-linecap="round"/>
<path d="M217.587 236.794H217.565C213.973 236.794 211.062 239.706 211.062 243.298V243.32C211.062 246.912 213.973 249.824 217.565 249.824H217.587C221.179 249.824 224.091 246.912 224.091 243.32V243.298C224.091 239.706 221.179 236.794 217.587 236.794Z" stroke="#008082" stroke-width="3" stroke-miterlimit="10"/>
<path d="M82.1517 222.045H35.5V191.84C35.5 191.399 35.6543 190.981 35.9409 190.65L52.9613 170.433C53.3582 169.97 53.9314 169.705 54.5267 169.705H80.2777C81.314 169.705 82.1297 170.543 82.1297 171.557V222.045H82.1517Z" stroke="#008082" stroke-width="3" stroke-miterlimit="10" stroke-linecap="round"/>
<path d="M172.964 236.794H172.942C169.35 236.794 166.438 239.706 166.438 243.298V243.32C166.438 246.912 169.35 249.824 172.942 249.824H172.964C176.556 249.824 179.468 246.912 179.468 243.32V243.298C179.468 239.706 176.556 236.794 172.964 236.794Z" stroke="#008082" stroke-width="3" stroke-miterlimit="10"/>
<path d="M74.1925 236.794H74.1704C70.5784 236.794 67.6665 239.706 67.6665 243.298V243.32C67.6665 246.912 70.5784 249.824 74.1704 249.824H74.1925C77.7845 249.824 80.6964 246.912 80.6964 243.32V243.298C80.6964 239.706 77.7845 236.794 74.1925 236.794Z" stroke="#008082" stroke-width="3" stroke-miterlimit="10"/>
<path d="M89.8679 242.945C90.0663 251.632 83.1876 258.819 74.5231 258.996C65.8365 259.194 58.6712 252.315 58.4728 243.651C58.4507 242.901 58.4948 242.174 58.6051 241.468C59.4649 233.818 65.9027 227.777 73.8176 227.6C81.975 227.424 88.8317 233.509 89.7577 241.468C89.8238 241.953 89.8459 242.438 89.8679 242.945Z" stroke="#008082" stroke-width="3" stroke-miterlimit="10" stroke-linecap="round"/>
<path d="M188.639 242.945C188.837 251.632 181.959 258.819 173.294 258.996C164.63 259.194 157.442 252.315 157.244 243.651C157.222 242.901 157.266 242.174 157.376 241.468C158.236 233.818 164.674 227.777 172.589 227.6C180.768 227.424 187.625 233.509 188.529 241.468C188.595 241.953 188.639 242.438 188.639 242.945Z" stroke="#008082" stroke-width="3" stroke-miterlimit="10" stroke-linecap="round"/>
<path d="M233.285 242.945C233.461 251.632 226.605 258.819 217.918 258.996C209.253 259.194 202.066 252.315 201.868 243.651C201.868 242.901 201.89 242.174 202 241.468C202.86 233.818 209.298 227.777 217.212 227.6C225.392 227.424 232.249 233.509 233.175 241.468C233.241 241.953 233.263 242.438 233.285 242.945Z" stroke="#008082" stroke-width="3" stroke-miterlimit="10" stroke-linecap="round"/>
<path d="M243.316 223.919V239.572C243.316 240.608 242.456 241.468 241.42 241.468H233.174C232.248 233.509 225.391 227.424 217.212 227.6C209.297 227.777 202.859 233.818 201.999 241.468H188.529C187.625 233.509 180.768 227.424 172.589 227.6C164.674 227.777 158.236 233.818 157.376 241.468H136.718C135.682 241.468 134.822 240.608 134.822 239.572V222.022H241.42C242.456 222.022 243.316 222.882 243.316 223.919Z" stroke="#008082" stroke-width="3" stroke-miterlimit="10" stroke-linecap="round"/>
<path d="M82.1519 216.555H252.488C254.009 216.555 255.222 217.789 255.222 219.289C255.222 220.81 253.987 222.022 252.488 222.022H82.1519V216.555Z" stroke="#008082" stroke-width="3" stroke-miterlimit="10" stroke-linecap="round"/>
<path d="M97.3203 204.693V164.92C97.3203 164.788 97.4746 164.744 97.5628 164.832L107.286 176.032L107.682 204.693H97.3424H97.3203Z" stroke="#008082" stroke-width="3" stroke-miterlimit="10" stroke-linecap="round"/>
<path d="M97.3202 222.022V239.528C97.3202 240.586 96.4603 241.468 95.38 241.468H89.736C88.81 233.509 81.9533 227.424 73.7959 227.6C65.881 227.777 59.4432 233.818 58.5834 241.468H37.3961C36.3378 241.468 35.5 240.608 35.5 239.572V223.896C35.5 222.86 36.3378 222.022 37.374 222.022H97.3202Z" stroke="#008082" stroke-width="3" stroke-miterlimit="10" stroke-linecap="round"/>
<path d="M120.998 185.049H268.648C269.684 185.049 270.5 185.887 270.5 186.901V214.681C270.5 215.717 269.662 216.533 268.648 216.533H119.146V186.923C119.146 185.887 119.984 185.071 120.998 185.071V185.049Z" stroke="#008082" stroke-width="3" stroke-miterlimit="10" stroke-linecap="round"/>
<path d="M204.161 154.602V159.761L202.044 160.864C201.604 160.048 200.92 159.343 200.082 158.835C197.437 157.226 193.975 158.086 192.388 160.732C191.374 162.385 191.33 164.369 192.101 166.001L190.139 167.015H119.765C119.368 167.015 118.971 167.147 118.64 167.39L117.869 167.963L107.286 176.032L97.5851 164.876C97.4308 164.7 97.4529 164.458 97.6292 164.303L111.629 153.147C111.96 152.883 112.379 152.75 112.798 152.75H202.309C203.323 152.75 204.161 153.588 204.161 154.602Z" stroke="#008082" stroke-width="3" stroke-miterlimit="10" stroke-linecap="round"/>
<path d="M207.226 182.162L196.621 169.221" stroke="#008082" stroke-width="3" stroke-miterlimit="10" stroke-linecap="round"/>
<path d="M216.132 179.428L202.793 163.202" stroke="#008082" stroke-width="3" stroke-miterlimit="10" stroke-linecap="round"/>
<path d="M201.978 166.53C200.39 169.198 196.929 170.036 194.283 168.448C193.842 168.184 193.467 167.875 193.115 167.522C193.093 167.478 193.049 167.456 193.004 167.412C192.652 166.993 192.321 166.508 192.1 166.001C191.329 164.369 191.373 162.385 192.387 160.732C193.975 158.086 197.436 157.226 200.082 158.836C200.919 159.343 201.603 160.048 202.044 160.864C203.014 162.562 203.08 164.722 201.978 166.53Z" stroke="#008082" stroke-width="3" stroke-miterlimit="10" stroke-linecap="round"/>
<path d="M119.741 174.996C117.779 178.303 113.48 179.339 110.195 177.377C109.644 177.046 109.181 176.672 108.74 176.231C108.718 176.187 108.652 176.142 108.608 176.098C108.453 175.878 108.255 175.613 108.123 175.415L118.639 167.412C119.719 166.706 119.631 167.676 119.808 167.985C121.02 170.079 121 172.75 119.808 174.862L119.741 174.996Z" stroke="#008082" stroke-width="3" stroke-miterlimit="10" stroke-linecap="round"/>
<path d="M212.518 177.907C215.318 177.907 217.588 180.178 217.588 182.978V185.05H207.447V182.978C207.447 180.178 209.718 177.907 212.518 177.907Z" stroke="#008082" stroke-width="3" stroke-miterlimit="10"/>
</svg>
